<?xml version="1.0" encoding="UTF-8" standalone="no"?>
<!DOCTYPE svg PUBLIC "-//W3C//DTD SVG 1.1//EN"
 "http://www.w3.org/Graphics/SVG/1.1/DTD/svg11.dtd">
<!-- Generated by graphviz version 10.0.1 (20240210.2158)
 -->
<!-- Pages: 1 -->
<svg width="2006pt" height="260pt"
 viewBox="0.00 0.00 2006.00 260.00" xmlns="http://www.w3.org/2000/svg" xmlns:xlink="http://www.w3.org/1999/xlink">
<g id="graph0" class="graph" transform="scale(1 1) rotate(0) translate(4 256)">
<polygon fill="white" stroke="none" points="-4,4 -4,-256 2002,-256 2002,4 -4,4"/>
<!-- 0 -->
<g id="node1" class="node">
<title>0</title>
<ellipse fill="none" stroke="black" cx="99" cy="-162" rx="27" ry="18"/>
<text text-anchor="middle" x="99" y="-156.95" font-family="Times,serif" font-size="14.00">0</text>
</g>
<!-- 1 -->
<g id="node4" class="node">
<title>1</title>
<ellipse fill="none" stroke="black" cx="288" cy="-90" rx="27" ry="18"/>
<text text-anchor="middle" x="288" y="-84.95" font-family="Times,serif" font-size="14.00">1</text>
</g>
<!-- 0&#45;&gt;1 -->
<g id="edge7" class="edge">
<title>0&#45;&gt;1</title>
<path fill="none" stroke="black" d="M120.15,-150.55C124.99,-148.29 130.14,-145.98 135,-144 174.87,-127.73 221.81,-111.96 253.08,-101.91"/>
<polygon fill="black" stroke="black" points="253.95,-105.31 262.41,-98.94 251.82,-98.64 253.95,-105.31"/>
</g>
<!-- 2 -->
<g id="node9" class="node">
<title>2</title>
<ellipse fill="none" stroke="black" cx="1035" cy="-90" rx="27" ry="18"/>
<text text-anchor="middle" x="1035" y="-84.95" font-family="Times,serif" font-size="14.00">2</text>
</g>
<!-- 0&#45;&gt;2 -->
<g id="edge12" class="edge">
<title>0&#45;&gt;2</title>
<path fill="none" stroke="black" d="M119.42,-149.64C124.38,-147.37 129.77,-145.29 135,-144 508.19,-52.12 625.81,-199.88 999,-108 1000.64,-107.6 1002.29,-107.12 1003.93,-106.58"/>
<polygon fill="black" stroke="black" points="1005.17,-109.85 1013.18,-102.92 1002.59,-103.35 1005.17,-109.85"/>
</g>
<!-- 4 -->
<g id="node19" class="node">
<title>4</title>
<ellipse fill="none" stroke="black" cx="180" cy="-90" rx="27" ry="18"/>
<text text-anchor="middle" x="180" y="-84.95" font-family="Times,serif" font-size="14.00">4</text>
</g>
<!-- 0&#45;&gt;4 -->
<g id="edge21" class="edge">
<title>0&#45;&gt;4</title>
<path fill="none" stroke="black" d="M115,-147.17C126.54,-137.2 142.33,-123.56 155.45,-112.21"/>
<polygon fill="black" stroke="black" points="157.61,-114.98 162.89,-105.79 153.03,-109.68 157.61,-114.98"/>
</g>
<!-- 16 -->
<g id="node33" class="node">
<title>16</title>
<ellipse fill="none" stroke="black" cx="675" cy="-90" rx="27" ry="18"/>
<text text-anchor="middle" x="675" y="-84.95" font-family="Times,serif" font-size="14.00">16</text>
</g>
<!-- 0&#45;&gt;16 -->
<g id="edge50" class="edge">
<title>0&#45;&gt;16</title>
<path fill="none" stroke="black" d="M119.45,-149.75C124.41,-147.48 129.78,-145.37 135,-144 352.24,-87.08 421.76,-164.92 639,-108 640.63,-107.57 642.28,-107.07 643.92,-106.52"/>
<polygon fill="black" stroke="black" points="645.18,-109.79 653.15,-102.81 642.57,-103.29 645.18,-109.79"/>
</g>
<!-- 32 -->
<g id="node2" class="node">
<title>32</title>
<ellipse fill="none" stroke="black" cx="252" cy="-234" rx="27" ry="18"/>
<text text-anchor="middle" x="252" y="-228.95" font-family="Times,serif" font-size="14.00">32</text>
</g>
<!-- 32&#45;&gt;0 -->
<g id="edge1" class="edge">
<title>32&#45;&gt;0</title>
<path fill="none" stroke="black" d="M229.96,-223.14C206.4,-212.57 167.99,-195.26 135,-180 133.69,-179.4 132.36,-178.78 131.02,-178.15"/>
<polygon fill="black" stroke="black" points="132.59,-175.02 122.05,-173.95 129.62,-181.36 132.59,-175.02"/>
</g>
<!-- 33 -->
<g id="node5" class="node">
<title>33</title>
<ellipse fill="none" stroke="black" cx="243" cy="-162" rx="27" ry="18"/>
<text text-anchor="middle" x="243" y="-156.95" font-family="Times,serif" font-size="14.00">33</text>
</g>
<!-- 32&#45;&gt;33 -->
<g id="edge99" class="edge">
<title>32&#45;&gt;33</title>
<path fill="none" stroke="black" d="M249.78,-215.7C248.83,-208.32 247.7,-199.52 246.63,-191.25"/>
<polygon fill="black" stroke="black" points="250.14,-191.08 245.39,-181.61 243.2,-191.97 250.14,-191.08"/>
</g>
<!-- 34 -->
<g id="node10" class="node">
<title>34</title>
<ellipse fill="none" stroke="black" cx="1107" cy="-162" rx="27" ry="18"/>
<text text-anchor="middle" x="1107" y="-156.95" font-family="Times,serif" font-size="14.00">34</text>
</g>
<!-- 32&#45;&gt;34 -->
<g id="edge102" class="edge">
<title>32&#45;&gt;34</title>
<path fill="none" stroke="black" d="M275.33,-224.21C284.72,-221.05 295.74,-217.82 306,-216 641.12,-156.4 740.71,-262.26 1071,-180 1072.63,-179.59 1074.28,-179.11 1075.93,-178.57"/>
<polygon fill="black" stroke="black" points="1077.17,-181.84 1085.17,-174.9 1074.58,-175.34 1077.17,-181.84"/>
</g>
<!-- 36 -->
<g id="node20" class="node">
<title>36</title>
<ellipse fill="none" stroke="black" cx="27" cy="-162" rx="27" ry="18"/>
<text text-anchor="middle" x="27" y="-156.95" font-family="Times,serif" font-size="14.00">36</text>
</g>
<!-- 32&#45;&gt;36 -->
<g id="edge107" class="edge">
<title>32&#45;&gt;36</title>
<path fill="none" stroke="black" d="M226.5,-227.29C189.78,-218.75 120.15,-201.33 63,-180 61.46,-179.43 59.9,-178.81 58.33,-178.17"/>
<polygon fill="black" stroke="black" points="60.02,-175.09 49.45,-174.28 57.21,-181.5 60.02,-175.09"/>
</g>
<!-- 48 -->
<g id="node34" class="node">
<title>48</title>
<ellipse fill="none" stroke="black" cx="603" cy="-162" rx="27" ry="18"/>
<text text-anchor="middle" x="603" y="-156.95" font-family="Times,serif" font-size="14.00">48</text>
</g>
<!-- 32&#45;&gt;48 -->
<g id="edge145" class="edge">
<title>32&#45;&gt;48</title>
<path fill="none" stroke="black" d="M275.42,-224.68C284.83,-221.59 295.84,-218.28 306,-216 420.25,-190.33 454.76,-213.39 567,-180 568.61,-179.52 570.25,-178.98 571.88,-178.39"/>
<polygon fill="black" stroke="black" points="573.19,-181.64 581.09,-174.58 570.51,-175.17 573.19,-181.64"/>
</g>
<!-- 40 -->
<g id="node49" class="node">
<title>40</title>
<ellipse fill="none" stroke="black" cx="387" cy="-162" rx="27" ry="18"/>
<text text-anchor="middle" x="387" y="-156.95" font-family="Times,serif" font-size="14.00">40</text>
</g>
<!-- 32&#45;&gt;40 -->
<g id="edge114" class="edge">
<title>32&#45;&gt;40</title>
<path fill="none" stroke="black" d="M272.8,-222.22C295.16,-210.62 330.93,-192.07 356.48,-178.82"/>
<polygon fill="black" stroke="black" points="357.79,-182.09 365.06,-174.38 354.57,-175.87 357.79,-182.09"/>
</g>
<!-- 8 -->
<g id="node3" class="node">
<title>8</title>
<ellipse fill="none" stroke="black" cx="419" cy="-234" rx="27" ry="18"/>
<text text-anchor="middle" x="419" y="-228.95" font-family="Times,serif" font-size="14.00">8</text>
</g>
<!-- 8&#45;&gt;0 -->
<g id="edge2" class="edge">
<title>8&#45;&gt;0</title>
<path fill="none" stroke="black" d="M397.22,-222.81C391.11,-220.27 384.39,-217.77 378,-216 272.78,-186.87 239.49,-211.65 135,-180 133.39,-179.51 131.76,-178.96 130.12,-178.37"/>
<polygon fill="black" stroke="black" points="131.5,-175.15 120.92,-174.54 128.81,-181.61 131.5,-175.15"/>
</g>
<!-- 9 -->
<g id="node7" class="node">
<title>9</title>
<ellipse fill="none" stroke="black" cx="531" cy="-162" rx="27" ry="18"/>
<text text-anchor="middle" x="531" y="-156.95" font-family="Times,serif" font-size="14.00">9</text>
</g>
<!-- 8&#45;&gt;9 -->
<g id="edge35" class="edge">
<title>8&#45;&gt;9</title>
<path fill="none" stroke="black" d="M438.25,-220.97C455.8,-210 481.97,-193.64 502.04,-181.1"/>
<polygon fill="black" stroke="black" points="503.71,-184.18 510.34,-175.91 500,-178.24 503.71,-184.18"/>
</g>
<!-- 10 -->
<g id="node12" class="node">
<title>10</title>
<ellipse fill="none" stroke="black" cx="1323" cy="-162" rx="27" ry="18"/>
<text text-anchor="middle" x="1323" y="-156.95" font-family="Times,serif" font-size="14.00">10</text>
</g>
<!-- 8&#45;&gt;10 -->
<g id="edge38" class="edge">
<title>8&#45;&gt;10</title>
<path fill="none" stroke="black" d="M443.44,-226.03C457.28,-222.39 474.97,-218.23 491,-216 666.37,-191.55 1115.14,-222.64 1287,-180 1288.64,-179.59 1290.29,-179.11 1291.93,-178.57"/>
<polygon fill="black" stroke="black" points="1293.17,-181.85 1301.17,-174.9 1290.59,-175.34 1293.17,-181.85"/>
</g>
<!-- 12 -->
<g id="node21" class="node">
<title>12</title>
<ellipse fill="none" stroke="black" cx="315" cy="-162" rx="27" ry="18"/>
<text text-anchor="middle" x="315" y="-156.95" font-family="Times,serif" font-size="14.00">12</text>
</g>
<!-- 8&#45;&gt;12 -->
<g id="edge43" class="edge">
<title>8&#45;&gt;12</title>
<path fill="none" stroke="black" d="M400.41,-220.49C384.43,-209.73 361.17,-194.08 342.95,-181.82"/>
<polygon fill="black" stroke="black" points="344.94,-178.93 334.69,-176.25 341.03,-184.74 344.94,-178.93"/>
</g>
<!-- 24 -->
<g id="node35" class="node">
<title>24</title>
<ellipse fill="none" stroke="black" cx="819" cy="-162" rx="27" ry="18"/>
<text text-anchor="middle" x="819" y="-156.95" font-family="Times,serif" font-size="14.00">24</text>
</g>
<!-- 8&#45;&gt;24 -->
<g id="edge81" class="edge">
<title>8&#45;&gt;24</title>
<path fill="none" stroke="black" d="M443.85,-226.43C457.66,-222.95 475.2,-218.83 491,-216 619.71,-192.94 657.4,-216.38 783,-180 784.62,-179.53 786.25,-179 787.89,-178.42"/>
<polygon fill="black" stroke="black" points="789.18,-181.67 797.1,-174.63 786.52,-175.2 789.18,-181.67"/>
</g>
<!-- 8&#45;&gt;40 -->
<g id="edge113" class="edge">
<title>8&#45;&gt;40</title>
<path fill="none" stroke="black" d="M411.42,-216.41C407.79,-208.48 403.36,-198.78 399.27,-189.84"/>
<polygon fill="black" stroke="black" points="402.5,-188.49 395.16,-180.85 396.13,-191.4 402.5,-188.49"/>
</g>
<!-- 3 -->
<g id="node14" class="node">
<title>3</title>
<ellipse fill="none" stroke="black" cx="1161" cy="-18" rx="27" ry="18"/>
<text text-anchor="middle" x="1161" y="-12.95" font-family="Times,serif" font-size="14.00">3</text>
</g>
<!-- 1&#45;&gt;3 -->
<g id="edge17" class="edge">
<title>1&#45;&gt;3</title>
<path fill="none" stroke="black" d="M314.1,-84.24C335.92,-80.42 367.9,-75.18 396,-72 468.54,-63.79 978.34,-30.74 1122.88,-21.45"/>
<polygon fill="black" stroke="black" points="1122.92,-24.95 1132.68,-20.82 1122.47,-17.96 1122.92,-24.95"/>
</g>
<!-- 33&#45;&gt;1 -->
<g id="edge3" class="edge">
<title>33&#45;&gt;1</title>
<path fill="none" stroke="black" d="M253.21,-145.12C258.68,-136.61 265.54,-125.94 271.72,-116.32"/>
<polygon fill="black" stroke="black" points="274.55,-118.4 277.01,-108.09 268.66,-114.61 274.55,-118.4"/>
</g>
<!-- 35 -->
<g id="node15" class="node">
<title>35</title>
<ellipse fill="none" stroke="black" cx="1179" cy="-90" rx="27" ry="18"/>
<text text-anchor="middle" x="1179" y="-84.95" font-family="Times,serif" font-size="14.00">35</text>
</g>
<!-- 33&#45;&gt;35 -->
<g id="edge105" class="edge">
<title>33&#45;&gt;35</title>
<path fill="none" stroke="black" d="M263.42,-149.64C268.38,-147.37 273.77,-145.29 279,-144 652.19,-52.12 769.81,-199.88 1143,-108 1144.64,-107.6 1146.29,-107.12 1147.93,-106.58"/>
<polygon fill="black" stroke="black" points="1149.17,-109.85 1157.18,-102.92 1146.59,-103.35 1149.17,-109.85"/>
</g>
<!-- 41 -->
<g id="node50" class="node">
<title>41</title>
<ellipse fill="none" stroke="black" cx="513" cy="-90" rx="27" ry="18"/>
<text text-anchor="middle" x="513" y="-84.95" font-family="Times,serif" font-size="14.00">41</text>
</g>
<!-- 33&#45;&gt;41 -->
<g id="edge117" class="edge">
<title>33&#45;&gt;41</title>
<path fill="none" stroke="black" d="M263.58,-150.19C268.53,-147.9 273.87,-145.67 279,-144 360.31,-117.53 385.7,-131.2 468,-108 471.81,-106.93 475.76,-105.67 479.66,-104.33"/>
<polygon fill="black" stroke="black" points="480.74,-107.65 488.94,-100.94 478.35,-101.08 480.74,-107.65"/>
</g>
<!-- 17 -->
<g id="node6" class="node">
<title>17</title>
<ellipse fill="none" stroke="black" cx="675" cy="-162" rx="27" ry="18"/>
<text text-anchor="middle" x="675" y="-156.95" font-family="Times,serif" font-size="14.00">17</text>
</g>
<!-- 17&#45;&gt;1 -->
<g id="edge4" class="edge">
<title>17&#45;&gt;1</title>
<path fill="none" stroke="black" d="M654.47,-150.04C649.52,-147.75 644.16,-145.56 639,-144 534.51,-112.35 503.93,-124.49 396,-108 372.52,-104.41 346.19,-100.27 325.41,-96.97"/>
<polygon fill="black" stroke="black" points="326.1,-93.54 315.67,-95.43 325,-100.45 326.1,-93.54"/>
</g>
<!-- 19 -->
<g id="node16" class="node">
<title>19</title>
<ellipse fill="none" stroke="black" cx="1593" cy="-90" rx="27" ry="18"/>
<text text-anchor="middle" x="1593" y="-84.95" font-family="Times,serif" font-size="14.00">19</text>
</g>
<!-- 17&#45;&gt;19 -->
<g id="edge61" class="edge">
<title>17&#45;&gt;19</title>
<path fill="none" stroke="black" d="M695.42,-149.65C700.38,-147.38 705.77,-145.29 711,-144 1068.59,-55.61 1176.23,-171.85 1539,-108 1545.64,-106.83 1552.59,-105.07 1559.21,-103.12"/>
<polygon fill="black" stroke="black" points="1560.02,-106.53 1568.5,-100.18 1557.91,-99.86 1560.02,-106.53"/>
</g>
<!-- 17&#45;&gt;16 -->
<g id="edge53" class="edge">
<title>17&#45;&gt;16</title>
<path fill="none" stroke="black" d="M675,-143.7C675,-136.41 675,-127.73 675,-119.54"/>
<polygon fill="black" stroke="black" points="678.5,-119.62 675,-109.62 671.5,-119.62 678.5,-119.62"/>
</g>
<!-- 21 -->
<g id="node43" class="node">
<title>21</title>
<ellipse fill="none" stroke="black" cx="747" cy="-90" rx="27" ry="18"/>
<text text-anchor="middle" x="747" y="-84.95" font-family="Times,serif" font-size="14.00">21</text>
</g>
<!-- 17&#45;&gt;21 -->
<g id="edge72" class="edge">
<title>17&#45;&gt;21</title>
<path fill="none" stroke="black" d="M689.92,-146.5C699.77,-136.92 712.86,-124.19 724.03,-113.34"/>
<polygon fill="black" stroke="black" points="726.29,-116.02 731.02,-106.54 721.41,-111 726.29,-116.02"/>
</g>
<!-- 9&#45;&gt;1 -->
<g id="edge5" class="edge">
<title>9&#45;&gt;1</title>
<path fill="none" stroke="black" d="M509.96,-150.25C505.12,-148 499.94,-145.78 495,-144 436.94,-123.08 366.93,-106.96 325.01,-98.25"/>
<polygon fill="black" stroke="black" points="325.95,-94.87 315.45,-96.29 324.55,-101.72 325.95,-94.87"/>
</g>
<!-- 11 -->
<g id="node17" class="node">
<title>11</title>
<ellipse fill="none" stroke="black" cx="1395" cy="-90" rx="27" ry="18"/>
<text text-anchor="middle" x="1395" y="-84.95" font-family="Times,serif" font-size="14.00">11</text>
</g>
<!-- 9&#45;&gt;11 -->
<g id="edge41" class="edge">
<title>9&#45;&gt;11</title>
<path fill="none" stroke="black" d="M551.42,-149.66C556.38,-147.38 561.77,-145.3 567,-144 908.99,-59.11 1017.01,-192.89 1359,-108 1360.64,-107.59 1362.29,-107.11 1363.93,-106.57"/>
<polygon fill="black" stroke="black" points="1365.17,-109.85 1373.17,-102.9 1362.59,-103.34 1365.17,-109.85"/>
</g>
<!-- 9&#45;&gt;41 -->
<g id="edge115" class="edge">
<title>9&#45;&gt;41</title>
<path fill="none" stroke="black" d="M526.64,-144.05C524.7,-136.49 522.35,-127.37 520.16,-118.85"/>
<polygon fill="black" stroke="black" points="523.57,-118.07 517.69,-109.25 516.79,-119.81 523.57,-118.07"/>
</g>
<!-- 5 -->
<g id="node8" class="node">
<title>5</title>
<ellipse fill="none" stroke="black" cx="171" cy="-162" rx="27" ry="18"/>
<text text-anchor="middle" x="171" y="-156.95" font-family="Times,serif" font-size="14.00">5</text>
</g>
<!-- 5&#45;&gt;1 -->
<g id="edge6" class="edge">
<title>5&#45;&gt;1</title>
<path fill="none" stroke="black" d="M190.58,-149.28C209.14,-138.18 237.27,-121.35 258.54,-108.63"/>
<polygon fill="black" stroke="black" points="260.27,-111.67 267.05,-103.53 256.68,-105.66 260.27,-111.67"/>
</g>
<!-- 7 -->
<g id="node18" class="node">
<title>7</title>
<ellipse fill="none" stroke="black" cx="1107" cy="-90" rx="27" ry="18"/>
<text text-anchor="middle" x="1107" y="-84.95" font-family="Times,serif" font-size="14.00">7</text>
</g>
<!-- 5&#45;&gt;7 -->
<g id="edge31" class="edge">
<title>5&#45;&gt;7</title>
<path fill="none" stroke="black" d="M191.42,-149.64C196.38,-147.37 201.77,-145.29 207,-144 580.19,-52.12 697.81,-199.88 1071,-108 1072.64,-107.6 1074.29,-107.12 1075.93,-106.58"/>
<polygon fill="black" stroke="black" points="1077.17,-109.85 1085.18,-102.92 1074.59,-103.35 1077.17,-109.85"/>
</g>
<!-- 5&#45;&gt;4 -->
<g id="edge23" class="edge">
<title>5&#45;&gt;4</title>
<path fill="none" stroke="black" d="M173.22,-143.7C174.17,-136.32 175.3,-127.52 176.37,-119.25"/>
<polygon fill="black" stroke="black" points="179.8,-119.97 177.61,-109.61 172.86,-119.08 179.8,-119.97"/>
</g>
<!-- 5&#45;&gt;21 -->
<g id="edge70" class="edge">
<title>5&#45;&gt;21</title>
<path fill="none" stroke="black" d="M191.45,-149.75C196.41,-147.48 201.78,-145.37 207,-144 424.24,-87.08 493.76,-164.92 711,-108 712.63,-107.57 714.28,-107.07 715.92,-106.52"/>
<polygon fill="black" stroke="black" points="717.18,-109.79 725.15,-102.81 714.57,-103.29 717.18,-109.79"/>
</g>
<!-- 2&#45;&gt;3 -->
<g id="edge18" class="edge">
<title>2&#45;&gt;3</title>
<path fill="none" stroke="black" d="M1055.24,-77.75C1075.73,-66.37 1107.62,-48.65 1131.03,-35.65"/>
<polygon fill="black" stroke="black" points="1132.44,-38.87 1139.48,-30.95 1129.04,-32.75 1132.44,-38.87"/>
</g>
<!-- 34&#45;&gt;2 -->
<g id="edge8" class="edge">
<title>34&#45;&gt;2</title>
<path fill="none" stroke="black" d="M1092.08,-146.5C1082.23,-136.92 1069.14,-124.19 1057.97,-113.34"/>
<polygon fill="black" stroke="black" points="1060.59,-111 1050.98,-106.54 1055.71,-116.02 1060.59,-111"/>
</g>
<!-- 34&#45;&gt;35 -->
<g id="edge106" class="edge">
<title>34&#45;&gt;35</title>
<path fill="none" stroke="black" d="M1121.92,-146.5C1131.77,-136.92 1144.86,-124.19 1156.03,-113.34"/>
<polygon fill="black" stroke="black" points="1158.29,-116.02 1163.02,-106.54 1153.41,-111 1158.29,-116.02"/>
</g>
<!-- 42 -->
<g id="node53" class="node">
<title>42</title>
<ellipse fill="none" stroke="black" cx="1251" cy="-90" rx="27" ry="18"/>
<text text-anchor="middle" x="1251" y="-84.95" font-family="Times,serif" font-size="14.00">42</text>
</g>
<!-- 34&#45;&gt;42 -->
<g id="edge122" class="edge">
<title>34&#45;&gt;42</title>
<path fill="none" stroke="black" d="M1128.56,-150.52C1152.66,-138.8 1191.92,-119.72 1219.47,-106.32"/>
<polygon fill="black" stroke="black" points="1220.94,-109.5 1228.4,-101.98 1217.88,-103.21 1220.94,-109.5"/>
</g>
<!-- 18 -->
<g id="node11" class="node">
<title>18</title>
<ellipse fill="none" stroke="black" cx="1539" cy="-162" rx="27" ry="18"/>
<text text-anchor="middle" x="1539" y="-156.95" font-family="Times,serif" font-size="14.00">18</text>
</g>
<!-- 18&#45;&gt;2 -->
<g id="edge9" class="edge">
<title>18&#45;&gt;2</title>
<path fill="none" stroke="black" d="M1518.54,-149.8C1513.58,-147.52 1508.21,-145.4 1503,-144 1316.92,-94.07 1257.08,-157.93 1071,-108 1069.37,-107.56 1067.73,-107.06 1066.09,-106.49"/>
<polygon fill="black" stroke="black" points="1067.44,-103.27 1056.86,-102.77 1064.82,-109.76 1067.44,-103.27"/>
</g>
<!-- 18&#45;&gt;19 -->
<g id="edge62" class="edge">
<title>18&#45;&gt;19</title>
<path fill="none" stroke="black" d="M1550.98,-145.46C1557.77,-136.67 1566.4,-125.48 1574.08,-115.53"/>
<polygon fill="black" stroke="black" points="1576.79,-117.75 1580.12,-107.69 1571.25,-113.47 1576.79,-117.75"/>
</g>
<!-- 18&#45;&gt;16 -->
<g id="edge52" class="edge">
<title>18&#45;&gt;16</title>
<path fill="none" stroke="black" d="M1518.58,-149.66C1513.62,-147.38 1508.23,-145.3 1503,-144 1161.01,-59.11 1052.99,-192.89 711,-108 709.36,-107.59 707.71,-107.11 706.07,-106.57"/>
<polygon fill="black" stroke="black" points="707.41,-103.34 696.83,-102.9 704.83,-109.85 707.41,-103.34"/>
</g>
<!-- 22 -->
<g id="node42" class="node">
<title>22</title>
<ellipse fill="none" stroke="black" cx="1503" cy="-90" rx="27" ry="18"/>
<text text-anchor="middle" x="1503" y="-84.95" font-family="Times,serif" font-size="14.00">22</text>
</g>
<!-- 18&#45;&gt;22 -->
<g id="edge77" class="edge">
<title>18&#45;&gt;22</title>
<path fill="none" stroke="black" d="M1530.65,-144.76C1526.42,-136.55 1521.19,-126.37 1516.42,-117.09"/>
<polygon fill="black" stroke="black" points="1519.68,-115.79 1512,-108.49 1513.46,-118.99 1519.68,-115.79"/>
</g>
<!-- 10&#45;&gt;2 -->
<g id="edge10" class="edge">
<title>10&#45;&gt;2</title>
<path fill="none" stroke="black" d="M1302.45,-150.11C1297.5,-147.82 1292.15,-145.61 1287,-144 1194.11,-114.94 1163.89,-137.06 1071,-108 1069.39,-107.5 1067.76,-106.94 1066.13,-106.33"/>
<polygon fill="black" stroke="black" points="1067.52,-103.12 1056.94,-102.48 1064.81,-109.57 1067.52,-103.12"/>
</g>
<!-- 10&#45;&gt;11 -->
<g id="edge42" class="edge">
<title>10&#45;&gt;11</title>
<path fill="none" stroke="black" d="M1337.92,-146.5C1347.77,-136.92 1360.86,-124.19 1372.03,-113.34"/>
<polygon fill="black" stroke="black" points="1374.29,-116.02 1379.02,-106.54 1369.41,-111 1374.29,-116.02"/>
</g>
<!-- 10&#45;&gt;42 -->
<g id="edge120" class="edge">
<title>10&#45;&gt;42</title>
<path fill="none" stroke="black" d="M1308.08,-146.5C1298.23,-136.92 1285.14,-124.19 1273.97,-113.34"/>
<polygon fill="black" stroke="black" points="1276.59,-111 1266.98,-106.54 1271.71,-116.02 1276.59,-111"/>
</g>
<!-- 6 -->
<g id="node13" class="node">
<title>6</title>
<ellipse fill="none" stroke="black" cx="1035" cy="-162" rx="27" ry="18"/>
<text text-anchor="middle" x="1035" y="-156.95" font-family="Times,serif" font-size="14.00">6</text>
</g>
<!-- 6&#45;&gt;2 -->
<g id="edge11" class="edge">
<title>6&#45;&gt;2</title>
<path fill="none" stroke="black" d="M1035,-143.7C1035,-136.41 1035,-127.73 1035,-119.54"/>
<polygon fill="black" stroke="black" points="1038.5,-119.62 1035,-109.62 1031.5,-119.62 1038.5,-119.62"/>
</g>
<!-- 6&#45;&gt;7 -->
<g id="edge32" class="edge">
<title>6&#45;&gt;7</title>
<path fill="none" stroke="black" d="M1049.92,-146.5C1059.77,-136.92 1072.86,-124.19 1084.03,-113.34"/>
<polygon fill="black" stroke="black" points="1086.29,-116.02 1091.02,-106.54 1081.41,-111 1086.29,-116.02"/>
</g>
<!-- 6&#45;&gt;4 -->
<g id="edge22" class="edge">
<title>6&#45;&gt;4</title>
<path fill="none" stroke="black" d="M1014.58,-149.67C1009.62,-147.39 1004.23,-145.31 999,-144 676.51,-63.49 581.13,-154.39 252,-108 239.98,-106.31 227.02,-103.55 215.46,-100.74"/>
<polygon fill="black" stroke="black" points="216.47,-97.38 205.91,-98.32 214.75,-104.17 216.47,-97.38"/>
</g>
<!-- 6&#45;&gt;22 -->
<g id="edge75" class="edge">
<title>6&#45;&gt;22</title>
<path fill="none" stroke="black" d="M1055.48,-149.86C1060.43,-147.58 1065.8,-145.44 1071,-144 1225.95,-101.04 1272.41,-134.53 1431,-108 1442.88,-106.01 1455.71,-103.2 1467.21,-100.44"/>
<polygon fill="black" stroke="black" points="1467.84,-103.88 1476.7,-98.08 1466.16,-97.09 1467.84,-103.88"/>
</g>
<!-- 35&#45;&gt;3 -->
<g id="edge13" class="edge">
<title>35&#45;&gt;3</title>
<path fill="none" stroke="black" d="M1174.64,-72.05C1172.7,-64.49 1170.35,-55.37 1168.16,-46.85"/>
<polygon fill="black" stroke="black" points="1171.57,-46.07 1165.69,-37.25 1164.79,-47.81 1171.57,-46.07"/>
</g>
<!-- 43 -->
<g id="node56" class="node">
<title>43</title>
<ellipse fill="none" stroke="black" cx="1269" cy="-18" rx="27" ry="18"/>
<text text-anchor="middle" x="1269" y="-12.95" font-family="Times,serif" font-size="14.00">43</text>
</g>
<!-- 35&#45;&gt;43 -->
<g id="edge127" class="edge">
<title>35&#45;&gt;43</title>
<path fill="none" stroke="black" d="M1195.93,-75.83C1209.17,-65.54 1227.81,-51.04 1242.95,-39.26"/>
<polygon fill="black" stroke="black" points="1244.9,-42.18 1250.65,-33.27 1240.6,-36.65 1244.9,-42.18"/>
</g>
<!-- 19&#45;&gt;3 -->
<g id="edge14" class="edge">
<title>19&#45;&gt;3</title>
<path fill="none" stroke="black" d="M1569.6,-80.58C1560.2,-77.47 1549.19,-74.18 1539,-72 1405.1,-43.31 1367.86,-59.77 1233,-36 1221.14,-33.91 1208.31,-31.07 1196.81,-28.31"/>
<polygon fill="black" stroke="black" points="1197.86,-24.96 1187.31,-25.97 1196.19,-31.76 1197.86,-24.96"/>
</g>
<!-- 11&#45;&gt;3 -->
<g id="edge15" class="edge">
<title>11&#45;&gt;3</title>
<path fill="none" stroke="black" d="M1373.95,-78.29C1369.11,-76.04 1363.93,-73.81 1359,-72 1329.38,-61.14 1245.83,-39.91 1197.25,-27.87"/>
<polygon fill="black" stroke="black" points="1198.3,-24.53 1187.75,-25.53 1196.62,-31.32 1198.3,-24.53"/>
</g>
<!-- 11&#45;&gt;43 -->
<g id="edge125" class="edge">
<title>11&#45;&gt;43</title>
<path fill="none" stroke="black" d="M1374.76,-77.75C1354.27,-66.37 1322.38,-48.65 1298.97,-35.65"/>
<polygon fill="black" stroke="black" points="1300.96,-32.75 1290.52,-30.95 1297.56,-38.87 1300.96,-32.75"/>
</g>
<!-- 7&#45;&gt;3 -->
<g id="edge16" class="edge">
<title>7&#45;&gt;3</title>
<path fill="none" stroke="black" d="M1118.98,-73.46C1125.77,-64.67 1134.4,-53.48 1142.08,-43.53"/>
<polygon fill="black" stroke="black" points="1144.79,-45.75 1148.12,-35.69 1139.25,-41.47 1144.79,-45.75"/>
</g>
<!-- 20 -->
<g id="node39" class="node">
<title>20</title>
<ellipse fill="lightblue" stroke="black" cx="711" cy="-18" rx="27" ry="18"/>
<text text-anchor="middle" x="711" y="-12.95" font-family="Times,serif" font-size="14.00">20</text>
</g>
<!-- 4&#45;&gt;20 -->
<g id="edge64" class="edge">
<title>4&#45;&gt;20</title>
<path fill="none" stroke="black" d="M204.84,-82.38C218.65,-78.89 236.19,-74.77 252,-72 406.82,-44.88 593.54,-28.23 672.63,-21.9"/>
<polygon fill="black" stroke="black" points="672.74,-25.41 682.43,-21.13 672.19,-18.43 672.74,-25.41"/>
</g>
<!-- 36&#45;&gt;4 -->
<g id="edge19" class="edge">
<title>36&#45;&gt;4</title>
<path fill="none" stroke="black" d="M48.68,-150.7C53.39,-148.47 58.36,-146.15 63,-144 91.48,-130.83 124,-116.12 147.51,-105.55"/>
<polygon fill="black" stroke="black" points="148.89,-108.77 156.58,-101.48 146.02,-102.38 148.89,-108.77"/>
</g>
<!-- 52 -->
<g id="node40" class="node">
<title>52</title>
<ellipse fill="none" stroke="black" cx="603" cy="-90" rx="27" ry="18"/>
<text text-anchor="middle" x="603" y="-84.95" font-family="Times,serif" font-size="14.00">52</text>
</g>
<!-- 36&#45;&gt;52 -->
<g id="edge151" class="edge">
<title>36&#45;&gt;52</title>
<path fill="none" stroke="black" d="M47.45,-149.76C52.41,-147.49 57.79,-145.37 63,-144 272.45,-88.83 336.28,-148.79 549,-108 555.55,-106.74 562.43,-104.96 569,-103.01"/>
<polygon fill="black" stroke="black" points="569.72,-106.45 578.2,-100.1 567.61,-99.78 569.72,-106.45"/>
</g>
<!-- 44 -->
<g id="node59" class="node">
<title>44</title>
<ellipse fill="none" stroke="black" cx="432" cy="-90" rx="27" ry="18"/>
<text text-anchor="middle" x="432" y="-84.95" font-family="Times,serif" font-size="14.00">44</text>
</g>
<!-- 36&#45;&gt;44 -->
<g id="edge132" class="edge">
<title>36&#45;&gt;44</title>
<path fill="none" stroke="black" d="M47.52,-150C52.47,-147.72 57.83,-145.54 63,-144 175.24,-110.61 208.16,-125.1 324,-108 347.5,-104.53 373.83,-100.39 394.61,-97.07"/>
<polygon fill="black" stroke="black" points="395.02,-100.54 404.34,-95.5 393.91,-93.63 395.02,-100.54"/>
</g>
<!-- 12&#45;&gt;4 -->
<g id="edge20" class="edge">
<title>12&#45;&gt;4</title>
<path fill="none" stroke="black" d="M294.2,-150.22C271.84,-138.62 236.07,-120.07 210.52,-106.82"/>
<polygon fill="black" stroke="black" points="212.43,-103.87 201.94,-102.38 209.21,-110.09 212.43,-103.87"/>
</g>
<!-- 28 -->
<g id="node41" class="node">
<title>28</title>
<ellipse fill="none" stroke="black" cx="819" cy="-90" rx="27" ry="18"/>
<text text-anchor="middle" x="819" y="-84.95" font-family="Times,serif" font-size="14.00">28</text>
</g>
<!-- 12&#45;&gt;28 -->
<g id="edge87" class="edge">
<title>12&#45;&gt;28</title>
<path fill="none" stroke="black" d="M335.46,-149.8C340.42,-147.52 345.79,-145.4 351,-144 537.08,-94.07 596.92,-157.93 783,-108 784.63,-107.56 786.27,-107.06 787.91,-106.49"/>
<polygon fill="black" stroke="black" points="789.18,-109.76 797.14,-102.77 786.56,-103.27 789.18,-109.76"/>
</g>
<!-- 12&#45;&gt;44 -->
<g id="edge131" class="edge">
<title>12&#45;&gt;44</title>
<path fill="none" stroke="black" d="M334.58,-149.28C353.14,-138.18 381.27,-121.35 402.54,-108.63"/>
<polygon fill="black" stroke="black" points="404.27,-111.67 411.05,-103.53 400.68,-105.66 404.27,-111.67"/>
</g>
<!-- 37 -->
<g id="node22" class="node">
<title>37</title>
<ellipse fill="none" stroke="black" cx="342" cy="-234" rx="27" ry="18"/>
<text text-anchor="middle" x="342" y="-228.95" font-family="Times,serif" font-size="14.00">37</text>
</g>
<!-- 37&#45;&gt;33 -->
<g id="edge98" class="edge">
<title>37&#45;&gt;33</title>
<path fill="none" stroke="black" d="M323.84,-220.16C308.77,-209.5 287.11,-194.19 270.01,-182.1"/>
<polygon fill="black" stroke="black" points="272.46,-179.55 262.28,-176.63 268.42,-185.26 272.46,-179.55"/>
</g>
<!-- 37&#45;&gt;5 -->
<g id="edge24" class="edge">
<title>37&#45;&gt;5</title>
<path fill="none" stroke="black" d="M318.88,-224.46C291.84,-214.35 245.83,-196.77 207,-180 205.49,-179.35 203.96,-178.67 202.41,-177.98"/>
<polygon fill="black" stroke="black" points="204.14,-174.92 193.59,-173.94 201.22,-181.29 204.14,-174.92"/>
</g>
<!-- 37&#45;&gt;36 -->
<g id="edge109" class="edge">
<title>37&#45;&gt;36</title>
<path fill="none" stroke="black" d="M318.28,-224.71C308.93,-221.66 298.04,-218.37 288,-216 189.44,-192.73 159.75,-209.92 63,-180 61.39,-179.5 59.76,-178.95 58.13,-178.34"/>
<polygon fill="black" stroke="black" points="59.51,-175.13 48.94,-174.5 56.81,-181.59 59.51,-175.13"/>
</g>
<!-- 39 -->
<g id="node26" class="node">
<title>39</title>
<ellipse fill="none" stroke="black" cx="1179" cy="-162" rx="27" ry="18"/>
<text text-anchor="middle" x="1179" y="-156.95" font-family="Times,serif" font-size="14.00">39</text>
</g>
<!-- 37&#45;&gt;39 -->
<g id="edge111" class="edge">
<title>37&#45;&gt;39</title>
<path fill="none" stroke="black" d="M363.25,-222.56C369.47,-219.95 376.38,-217.48 383,-216 712.99,-142.14 814.88,-261.78 1143,-180 1144.63,-179.59 1146.28,-179.11 1147.93,-178.57"/>
<polygon fill="black" stroke="black" points="1149.17,-181.84 1157.17,-174.9 1146.58,-175.34 1149.17,-181.84"/>
</g>
<!-- 53 -->
<g id="node44" class="node">
<title>53</title>
<ellipse fill="none" stroke="black" cx="747" cy="-162" rx="27" ry="18"/>
<text text-anchor="middle" x="747" y="-156.95" font-family="Times,serif" font-size="14.00">53</text>
</g>
<!-- 37&#45;&gt;53 -->
<g id="edge155" class="edge">
<title>37&#45;&gt;53</title>
<path fill="none" stroke="black" d="M363.31,-222.82C369.53,-220.22 376.43,-217.69 383,-216 525.05,-179.55 569.87,-219.86 711,-180 712.62,-179.54 714.26,-179.02 715.9,-178.44"/>
<polygon fill="black" stroke="black" points="717.18,-181.7 725.11,-174.67 714.53,-175.22 717.18,-181.7"/>
</g>
<!-- 45 -->
<g id="node52" class="node">
<title>45</title>
<ellipse fill="none" stroke="black" cx="459" cy="-162" rx="27" ry="18"/>
<text text-anchor="middle" x="459" y="-156.95" font-family="Times,serif" font-size="14.00">45</text>
</g>
<!-- 37&#45;&gt;45 -->
<g id="edge137" class="edge">
<title>37&#45;&gt;45</title>
<path fill="none" stroke="black" d="M361.58,-221.28C380.14,-210.18 408.27,-193.35 429.54,-180.63"/>
<polygon fill="black" stroke="black" points="431.27,-183.67 438.05,-175.53 427.68,-177.66 431.27,-183.67"/>
</g>
<!-- 13 -->
<g id="node23" class="node">
<title>13</title>
<ellipse fill="none" stroke="black" cx="527" cy="-234" rx="27" ry="18"/>
<text text-anchor="middle" x="527" y="-228.95" font-family="Times,serif" font-size="14.00">13</text>
</g>
<!-- 13&#45;&gt;9 -->
<g id="edge34" class="edge">
<title>13&#45;&gt;9</title>
<path fill="none" stroke="black" d="M527.99,-215.7C528.41,-208.41 528.9,-199.73 529.37,-191.54"/>
<polygon fill="black" stroke="black" points="532.86,-191.8 529.94,-181.62 525.87,-191.4 532.86,-191.8"/>
</g>
<!-- 13&#45;&gt;5 -->
<g id="edge25" class="edge">
<title>13&#45;&gt;5</title>
<path fill="none" stroke="black" d="M502.12,-226.56C488.31,-223.12 470.77,-219 455,-216 345.59,-195.18 313.64,-212.13 207,-180 205.39,-179.51 203.75,-178.97 202.12,-178.37"/>
<polygon fill="black" stroke="black" points="203.5,-175.16 192.92,-174.55 200.81,-181.62 203.5,-175.16"/>
</g>
<!-- 13&#45;&gt;12 -->
<g id="edge45" class="edge">
<title>13&#45;&gt;12</title>
<path fill="none" stroke="black" d="M501.83,-226.69C467.32,-217.74 403.58,-200.2 351,-180 349.47,-179.41 347.91,-178.79 346.34,-178.13"/>
<polygon fill="black" stroke="black" points="348.04,-175.06 337.48,-174.21 345.21,-181.46 348.04,-175.06"/>
</g>
<!-- 15 -->
<g id="node28" class="node">
<title>15</title>
<ellipse fill="none" stroke="black" cx="1395" cy="-162" rx="27" ry="18"/>
<text text-anchor="middle" x="1395" y="-156.95" font-family="Times,serif" font-size="14.00">15</text>
</g>
<!-- 13&#45;&gt;15 -->
<g id="edge47" class="edge">
<title>13&#45;&gt;15</title>
<path fill="none" stroke="black" d="M553.42,-229.47C582.99,-225.63 632.35,-219.57 675,-216 826.68,-203.31 1211.4,-217.2 1359,-180 1360.63,-179.59 1362.28,-179.1 1363.93,-178.56"/>
<polygon fill="black" stroke="black" points="1365.17,-181.83 1373.17,-174.88 1362.58,-175.33 1365.17,-181.83"/>
</g>
<!-- 29 -->
<g id="node45" class="node">
<title>29</title>
<ellipse fill="none" stroke="black" cx="891" cy="-162" rx="27" ry="18"/>
<text text-anchor="middle" x="891" y="-156.95" font-family="Times,serif" font-size="14.00">29</text>
</g>
<!-- 13&#45;&gt;29 -->
<g id="edge91" class="edge">
<title>13&#45;&gt;29</title>
<path fill="none" stroke="black" d="M553.65,-229.68C621.31,-221.08 798.39,-197.55 855,-180 856.61,-179.5 858.24,-178.94 859.87,-178.34"/>
<polygon fill="black" stroke="black" points="861.19,-181.58 869.06,-174.5 858.49,-175.13 861.19,-181.58"/>
</g>
<!-- 13&#45;&gt;45 -->
<g id="edge136" class="edge">
<title>13&#45;&gt;45</title>
<path fill="none" stroke="black" d="M512.91,-218.5C503.7,-209.02 491.48,-196.44 481.01,-185.66"/>
<polygon fill="black" stroke="black" points="483.6,-183.31 474.13,-178.57 478.58,-188.18 483.6,-183.31"/>
</g>
<!-- 38 -->
<g id="node24" class="node">
<title>38</title>
<ellipse fill="none" stroke="black" cx="1143" cy="-234" rx="27" ry="18"/>
<text text-anchor="middle" x="1143" y="-228.95" font-family="Times,serif" font-size="14.00">38</text>
</g>
<!-- 38&#45;&gt;34 -->
<g id="edge101" class="edge">
<title>38&#45;&gt;34</title>
<path fill="none" stroke="black" d="M1134.65,-216.76C1130.42,-208.55 1125.19,-198.37 1120.42,-189.09"/>
<polygon fill="black" stroke="black" points="1123.68,-187.79 1116,-180.49 1117.46,-190.99 1123.68,-187.79"/>
</g>
<!-- 38&#45;&gt;6 -->
<g id="edge26" class="edge">
<title>38&#45;&gt;6</title>
<path fill="none" stroke="black" d="M1124.19,-220.81C1107.41,-209.93 1082.61,-193.86 1063.41,-181.42"/>
<polygon fill="black" stroke="black" points="1065.52,-178.61 1055.23,-176.11 1061.72,-184.49 1065.52,-178.61"/>
</g>
<!-- 38&#45;&gt;36 -->
<g id="edge108" class="edge">
<title>38&#45;&gt;36</title>
<path fill="none" stroke="black" d="M1116.16,-230.98C1070.12,-227.56 973.09,-220.55 891,-216 707.11,-205.8 241.79,-224.19 63,-180 61.36,-179.6 59.71,-179.11 58.07,-178.57"/>
<polygon fill="black" stroke="black" points="59.41,-175.34 48.83,-174.91 56.83,-181.85 59.41,-175.34"/>
</g>
<!-- 38&#45;&gt;39 -->
<g id="edge112" class="edge">
<title>38&#45;&gt;39</title>
<path fill="none" stroke="black" d="M1151.35,-216.76C1155.58,-208.55 1160.81,-198.37 1165.58,-189.09"/>
<polygon fill="black" stroke="black" points="1168.54,-190.99 1170,-180.49 1162.32,-187.79 1168.54,-190.99"/>
</g>
<!-- 54 -->
<g id="node46" class="node">
<title>54</title>
<ellipse fill="none" stroke="black" cx="1467" cy="-162" rx="27" ry="18"/>
<text text-anchor="middle" x="1467" y="-156.95" font-family="Times,serif" font-size="14.00">54</text>
</g>
<!-- 38&#45;&gt;54 -->
<g id="edge158" class="edge">
<title>38&#45;&gt;54</title>
<path fill="none" stroke="black" d="M1168.82,-228.64C1234.78,-217.45 1406.08,-188.03 1431,-180 1432.6,-179.48 1434.23,-178.91 1435.86,-178.3"/>
<polygon fill="black" stroke="black" points="1437.19,-181.53 1445.04,-174.42 1434.46,-175.09 1437.19,-181.53"/>
</g>
<!-- 46 -->
<g id="node55" class="node">
<title>46</title>
<ellipse fill="none" stroke="black" cx="1251" cy="-162" rx="27" ry="18"/>
<text text-anchor="middle" x="1251" y="-156.95" font-family="Times,serif" font-size="14.00">46</text>
</g>
<!-- 38&#45;&gt;46 -->
<g id="edge139" class="edge">
<title>38&#45;&gt;46</title>
<path fill="none" stroke="black" d="M1161.81,-220.81C1178.59,-209.93 1203.39,-193.86 1222.59,-181.42"/>
<polygon fill="black" stroke="black" points="1224.28,-184.49 1230.77,-176.11 1220.48,-178.61 1224.28,-184.49"/>
</g>
<!-- 14 -->
<g id="node25" class="node">
<title>14</title>
<ellipse fill="none" stroke="black" cx="1287" cy="-234" rx="27" ry="18"/>
<text text-anchor="middle" x="1287" y="-228.95" font-family="Times,serif" font-size="14.00">14</text>
</g>
<!-- 14&#45;&gt;10 -->
<g id="edge37" class="edge">
<title>14&#45;&gt;10</title>
<path fill="none" stroke="black" d="M1295.35,-216.76C1299.58,-208.55 1304.81,-198.37 1309.58,-189.09"/>
<polygon fill="black" stroke="black" points="1312.54,-190.99 1314,-180.49 1306.32,-187.79 1312.54,-190.99"/>
</g>
<!-- 14&#45;&gt;6 -->
<g id="edge27" class="edge">
<title>14&#45;&gt;6</title>
<path fill="none" stroke="black" d="M1260.91,-228.36C1219.8,-220.65 1137.78,-203.69 1071,-180 1069.45,-179.45 1067.88,-178.86 1066.31,-178.23"/>
<polygon fill="black" stroke="black" points="1067.98,-175.14 1057.41,-174.39 1065.2,-181.57 1067.98,-175.14"/>
</g>
<!-- 14&#45;&gt;12 -->
<g id="edge44" class="edge">
<title>14&#45;&gt;12</title>
<path fill="none" stroke="black" d="M1261.36,-228.13C1239.54,-224.19 1207.33,-218.84 1179,-216 995.74,-197.65 529.79,-224.19 351,-180 349.36,-179.6 347.71,-179.11 346.07,-178.57"/>
<polygon fill="black" stroke="black" points="347.41,-175.34 336.83,-174.91 344.83,-181.85 347.41,-175.34"/>
</g>
<!-- 14&#45;&gt;15 -->
<g id="edge48" class="edge">
<title>14&#45;&gt;15</title>
<path fill="none" stroke="black" d="M1305.81,-220.81C1322.59,-209.93 1347.39,-193.86 1366.59,-181.42"/>
<polygon fill="black" stroke="black" points="1368.28,-184.49 1374.77,-176.11 1364.48,-178.61 1368.28,-184.49"/>
</g>
<!-- 30 -->
<g id="node47" class="node">
<title>30</title>
<ellipse fill="none" stroke="black" cx="1755" cy="-162" rx="27" ry="18"/>
<text text-anchor="middle" x="1755" y="-156.95" font-family="Times,serif" font-size="14.00">30</text>
</g>
<!-- 14&#45;&gt;30 -->
<g id="edge94" class="edge">
<title>14&#45;&gt;30</title>
<path fill="none" stroke="black" d="M1313.69,-230.23C1401.8,-221 1679.99,-191.29 1719,-180 1720.62,-179.53 1722.25,-179 1723.89,-178.42"/>
<polygon fill="black" stroke="black" points="1725.18,-181.67 1733.1,-174.63 1722.52,-175.2 1725.18,-181.67"/>
</g>
<!-- 14&#45;&gt;46 -->
<g id="edge138" class="edge">
<title>14&#45;&gt;46</title>
<path fill="none" stroke="black" d="M1278.65,-216.76C1274.42,-208.55 1269.19,-198.37 1264.42,-189.09"/>
<polygon fill="black" stroke="black" points="1267.68,-187.79 1260,-180.49 1261.46,-190.99 1267.68,-187.79"/>
</g>
<!-- 39&#45;&gt;35 -->
<g id="edge104" class="edge">
<title>39&#45;&gt;35</title>
<path fill="none" stroke="black" d="M1179,-143.7C1179,-136.41 1179,-127.73 1179,-119.54"/>
<polygon fill="black" stroke="black" points="1182.5,-119.62 1179,-109.62 1175.5,-119.62 1182.5,-119.62"/>
</g>
<!-- 39&#45;&gt;7 -->
<g id="edge28" class="edge">
<title>39&#45;&gt;7</title>
<path fill="none" stroke="black" d="M1164.08,-146.5C1154.23,-136.92 1141.14,-124.19 1129.97,-113.34"/>
<polygon fill="black" stroke="black" points="1132.59,-111 1122.98,-106.54 1127.71,-116.02 1132.59,-111"/>
</g>
<!-- 47 -->
<g id="node58" class="node">
<title>47</title>
<ellipse fill="none" stroke="black" cx="1323" cy="-90" rx="27" ry="18"/>
<text text-anchor="middle" x="1323" y="-84.95" font-family="Times,serif" font-size="14.00">47</text>
</g>
<!-- 39&#45;&gt;47 -->
<g id="edge142" class="edge">
<title>39&#45;&gt;47</title>
<path fill="none" stroke="black" d="M1200.56,-150.52C1224.66,-138.8 1263.92,-119.72 1291.47,-106.32"/>
<polygon fill="black" stroke="black" points="1292.94,-109.5 1300.4,-101.98 1289.88,-103.21 1292.94,-109.5"/>
</g>
<!-- 23 -->
<g id="node27" class="node">
<title>23</title>
<ellipse fill="none" stroke="black" cx="1611" cy="-162" rx="27" ry="18"/>
<text text-anchor="middle" x="1611" y="-156.95" font-family="Times,serif" font-size="14.00">23</text>
</g>
<!-- 23&#45;&gt;19 -->
<g id="edge60" class="edge">
<title>23&#45;&gt;19</title>
<path fill="none" stroke="black" d="M1606.64,-144.05C1604.7,-136.49 1602.35,-127.37 1600.16,-118.85"/>
<polygon fill="black" stroke="black" points="1603.57,-118.07 1597.69,-109.25 1596.79,-119.81 1603.57,-118.07"/>
</g>
<!-- 23&#45;&gt;7 -->
<g id="edge29" class="edge">
<title>23&#45;&gt;7</title>
<path fill="none" stroke="black" d="M1590.54,-149.8C1585.58,-147.52 1580.21,-145.4 1575,-144 1388.92,-94.07 1329.08,-157.93 1143,-108 1141.37,-107.56 1139.73,-107.06 1138.09,-106.49"/>
<polygon fill="black" stroke="black" points="1139.44,-103.27 1128.86,-102.77 1136.82,-109.76 1139.44,-103.27"/>
</g>
<!-- 23&#45;&gt;22 -->
<g id="edge78" class="edge">
<title>23&#45;&gt;22</title>
<path fill="none" stroke="black" d="M1592.19,-148.81C1575.41,-137.93 1550.61,-121.86 1531.41,-109.42"/>
<polygon fill="black" stroke="black" points="1533.52,-106.61 1523.23,-104.11 1529.72,-112.49 1533.52,-106.61"/>
</g>
<!-- 23&#45;&gt;21 -->
<g id="edge73" class="edge">
<title>23&#45;&gt;21</title>
<path fill="none" stroke="black" d="M1590.58,-149.66C1585.62,-147.38 1580.23,-145.3 1575,-144 1233.01,-59.11 1124.99,-192.89 783,-108 781.36,-107.59 779.71,-107.11 778.07,-106.57"/>
<polygon fill="black" stroke="black" points="779.41,-103.34 768.83,-102.9 776.83,-109.85 779.41,-103.34"/>
</g>
<!-- 15&#45;&gt;11 -->
<g id="edge40" class="edge">
<title>15&#45;&gt;11</title>
<path fill="none" stroke="black" d="M1395,-143.7C1395,-136.41 1395,-127.73 1395,-119.54"/>
<polygon fill="black" stroke="black" points="1398.5,-119.62 1395,-109.62 1391.5,-119.62 1398.5,-119.62"/>
</g>
<!-- 15&#45;&gt;7 -->
<g id="edge30" class="edge">
<title>15&#45;&gt;7</title>
<path fill="none" stroke="black" d="M1374.45,-150.11C1369.5,-147.82 1364.15,-145.61 1359,-144 1266.11,-114.94 1235.89,-137.06 1143,-108 1141.39,-107.5 1139.76,-106.94 1138.13,-106.33"/>
<polygon fill="black" stroke="black" points="1139.52,-103.12 1128.94,-102.48 1136.81,-109.57 1139.52,-103.12"/>
</g>
<!-- 15&#45;&gt;47 -->
<g id="edge140" class="edge">
<title>15&#45;&gt;47</title>
<path fill="none" stroke="black" d="M1380.08,-146.5C1370.23,-136.92 1357.14,-124.19 1345.97,-113.34"/>
<polygon fill="black" stroke="black" points="1348.59,-111 1338.98,-106.54 1343.71,-116.02 1348.59,-111"/>
</g>
<!-- 25 -->
<g id="node29" class="node">
<title>25</title>
<ellipse fill="none" stroke="black" cx="855" cy="-234" rx="27" ry="18"/>
<text text-anchor="middle" x="855" y="-228.95" font-family="Times,serif" font-size="14.00">25</text>
</g>
<!-- 25&#45;&gt;17 -->
<g id="edge55" class="edge">
<title>25&#45;&gt;17</title>
<path fill="none" stroke="black" d="M831.05,-224.91C802.27,-215.03 752.64,-197.46 711,-180 709.49,-179.37 707.94,-178.7 706.39,-178.02"/>
<polygon fill="black" stroke="black" points="708.11,-174.96 697.56,-174.01 705.21,-181.33 708.11,-174.96"/>
</g>
<!-- 25&#45;&gt;9 -->
<g id="edge33" class="edge">
<title>25&#45;&gt;9</title>
<path fill="none" stroke="black" d="M829.18,-228.64C763.22,-217.45 591.92,-188.03 567,-180 565.4,-179.48 563.77,-178.91 562.14,-178.3"/>
<polygon fill="black" stroke="black" points="563.54,-175.09 552.96,-174.42 560.81,-181.53 563.54,-175.09"/>
</g>
<!-- 27 -->
<g id="node31" class="node">
<title>27</title>
<ellipse fill="none" stroke="black" cx="1971" cy="-162" rx="27" ry="18"/>
<text text-anchor="middle" x="1971" y="-156.95" font-family="Times,serif" font-size="14.00">27</text>
</g>
<!-- 25&#45;&gt;27 -->
<g id="edge85" class="edge">
<title>25&#45;&gt;27</title>
<path fill="none" stroke="black" d="M881.84,-230.98C927.88,-227.56 1024.91,-220.55 1107,-216 1290.89,-205.8 1756.21,-224.19 1935,-180 1936.64,-179.6 1938.29,-179.11 1939.93,-178.57"/>
<polygon fill="black" stroke="black" points="1941.17,-181.85 1949.17,-174.91 1938.59,-175.34 1941.17,-181.85"/>
</g>
<!-- 25&#45;&gt;24 -->
<g id="edge83" class="edge">
<title>25&#45;&gt;24</title>
<path fill="none" stroke="black" d="M846.65,-216.76C842.42,-208.55 837.19,-198.37 832.42,-189.09"/>
<polygon fill="black" stroke="black" points="835.68,-187.79 828,-180.49 829.46,-190.99 835.68,-187.79"/>
</g>
<!-- 25&#45;&gt;29 -->
<g id="edge92" class="edge">
<title>25&#45;&gt;29</title>
<path fill="none" stroke="black" d="M863.35,-216.76C867.58,-208.55 872.81,-198.37 877.58,-189.09"/>
<polygon fill="black" stroke="black" points="880.54,-190.99 882,-180.49 874.32,-187.79 880.54,-190.99"/>
</g>
<!-- 57 -->
<g id="node51" class="node">
<title>57</title>
<ellipse fill="none" stroke="black" cx="963" cy="-162" rx="27" ry="18"/>
<text text-anchor="middle" x="963" y="-156.95" font-family="Times,serif" font-size="14.00">57</text>
</g>
<!-- 25&#45;&gt;57 -->
<g id="edge166" class="edge">
<title>25&#45;&gt;57</title>
<path fill="none" stroke="black" d="M873.81,-220.81C890.59,-209.93 915.39,-193.86 934.59,-181.42"/>
<polygon fill="black" stroke="black" points="936.28,-184.49 942.77,-176.11 932.48,-178.61 936.28,-184.49"/>
</g>
<!-- 26 -->
<g id="node30" class="node">
<title>26</title>
<ellipse fill="none" stroke="black" cx="1674" cy="-234" rx="27" ry="18"/>
<text text-anchor="middle" x="1674" y="-228.95" font-family="Times,serif" font-size="14.00">26</text>
</g>
<!-- 26&#45;&gt;18 -->
<g id="edge57" class="edge">
<title>26&#45;&gt;18</title>
<path fill="none" stroke="black" d="M1653.2,-222.22C1630.84,-210.62 1595.07,-192.07 1569.52,-178.82"/>
<polygon fill="black" stroke="black" points="1571.43,-175.87 1560.94,-174.38 1568.21,-182.09 1571.43,-175.87"/>
</g>
<!-- 26&#45;&gt;10 -->
<g id="edge36" class="edge">
<title>26&#45;&gt;10</title>
<path fill="none" stroke="black" d="M1651.89,-223.5C1644.7,-220.72 1636.61,-217.92 1629,-216 1511.61,-186.42 1475.11,-214.25 1359,-180 1357.38,-179.52 1355.75,-178.98 1354.11,-178.4"/>
<polygon fill="black" stroke="black" points="1355.49,-175.18 1344.91,-174.59 1352.81,-181.65 1355.49,-175.18"/>
</g>
<!-- 26&#45;&gt;27 -->
<g id="edge86" class="edge">
<title>26&#45;&gt;27</title>
<path fill="none" stroke="black" d="M1695.66,-222.68C1701.51,-220.2 1707.91,-217.76 1714,-216 1809.6,-188.34 1839.97,-209.54 1935,-180 1936.61,-179.5 1938.24,-178.94 1939.87,-178.34"/>
<polygon fill="black" stroke="black" points="1941.19,-181.58 1949.06,-174.49 1938.48,-175.12 1941.19,-181.58"/>
</g>
<!-- 26&#45;&gt;24 -->
<g id="edge82" class="edge">
<title>26&#45;&gt;24</title>
<path fill="none" stroke="black" d="M1651.98,-223.1C1644.8,-220.3 1636.69,-217.59 1629,-216 1291.76,-146.29 1189.19,-263.14 855,-180 853.37,-179.59 851.72,-179.11 850.07,-178.57"/>
<polygon fill="black" stroke="black" points="851.41,-175.34 840.83,-174.9 848.83,-181.84 851.41,-175.34"/>
</g>
<!-- 26&#45;&gt;30 -->
<g id="edge95" class="edge">
<title>26&#45;&gt;30</title>
<path fill="none" stroke="black" d="M1690,-219.17C1701.54,-209.2 1717.33,-195.56 1730.45,-184.21"/>
<polygon fill="black" stroke="black" points="1732.61,-186.98 1737.89,-177.79 1728.03,-181.68 1732.61,-186.98"/>
</g>
<!-- 58 -->
<g id="node54" class="node">
<title>58</title>
<ellipse fill="none" stroke="black" cx="1827" cy="-162" rx="27" ry="18"/>
<text text-anchor="middle" x="1827" y="-156.95" font-family="Times,serif" font-size="14.00">58</text>
</g>
<!-- 26&#45;&gt;58 -->
<g id="edge168" class="edge">
<title>26&#45;&gt;58</title>
<path fill="none" stroke="black" d="M1696.04,-223.14C1719.6,-212.57 1758.01,-195.26 1791,-180 1792.31,-179.4 1793.64,-178.78 1794.98,-178.15"/>
<polygon fill="black" stroke="black" points="1796.38,-181.36 1803.95,-173.95 1793.41,-175.02 1796.38,-181.36"/>
</g>
<!-- 27&#45;&gt;19 -->
<g id="edge59" class="edge">
<title>27&#45;&gt;19</title>
<path fill="none" stroke="black" d="M1950.48,-150C1945.53,-147.72 1940.17,-145.54 1935,-144 1822.76,-110.61 1789.37,-128.04 1674,-108 1659.4,-105.46 1643.42,-102.21 1629.54,-99.23"/>
<polygon fill="black" stroke="black" points="1630.44,-95.85 1619.93,-97.14 1628.95,-102.69 1630.44,-95.85"/>
</g>
<!-- 27&#45;&gt;11 -->
<g id="edge39" class="edge">
<title>27&#45;&gt;11</title>
<path fill="none" stroke="black" d="M1950.55,-149.78C1945.59,-147.5 1940.21,-145.38 1935,-144 1733.34,-90.58 1673.14,-140.07 1467,-108 1455.1,-106.15 1442.26,-103.37 1430.77,-100.6"/>
<polygon fill="black" stroke="black" points="1431.82,-97.26 1421.27,-98.23 1430.12,-104.05 1431.82,-97.26"/>
</g>
<!-- 59 -->
<g id="node57" class="node">
<title>59</title>
<ellipse fill="none" stroke="black" cx="1804" cy="-90" rx="27" ry="18"/>
<text text-anchor="middle" x="1804" y="-84.95" font-family="Times,serif" font-size="14.00">59</text>
</g>
<!-- 27&#45;&gt;59 -->
<g id="edge170" class="edge">
<title>27&#45;&gt;59</title>
<path fill="none" stroke="black" d="M1949.77,-150.73C1944.94,-148.46 1939.81,-146.11 1935,-144 1902.16,-129.62 1864.13,-114.39 1837.53,-103.96"/>
<polygon fill="black" stroke="black" points="1838.88,-100.73 1828.29,-100.35 1836.34,-107.25 1838.88,-100.73"/>
</g>
<!-- 31 -->
<g id="node32" class="node">
<title>31</title>
<ellipse fill="none" stroke="black" cx="1750" cy="-234" rx="27" ry="18"/>
<text text-anchor="middle" x="1750" y="-228.95" font-family="Times,serif" font-size="14.00">31</text>
</g>
<!-- 31&#45;&gt;23 -->
<g id="edge80" class="edge">
<title>31&#45;&gt;23</title>
<path fill="none" stroke="black" d="M1728.89,-222.37C1705.79,-210.74 1668.54,-191.98 1642.1,-178.66"/>
<polygon fill="black" stroke="black" points="1643.71,-175.55 1633.21,-174.18 1640.56,-181.81 1643.71,-175.55"/>
</g>
<!-- 31&#45;&gt;15 -->
<g id="edge46" class="edge">
<title>31&#45;&gt;15</title>
<path fill="none" stroke="black" d="M1728.79,-222.72C1722.83,-220.18 1716.26,-217.7 1710,-216 1589.34,-183.24 1550.99,-215.12 1431,-180 1429.38,-179.53 1427.75,-178.99 1426.11,-178.4"/>
<polygon fill="black" stroke="black" points="1427.48,-175.18 1416.91,-174.61 1424.82,-181.66 1427.48,-175.18"/>
</g>
<!-- 31&#45;&gt;27 -->
<g id="edge84" class="edge">
<title>31&#45;&gt;27</title>
<path fill="none" stroke="black" d="M1775.25,-227.15C1811.26,-218.49 1879.19,-201.01 1935,-180 1936.54,-179.42 1938.1,-178.8 1939.67,-178.16"/>
<polygon fill="black" stroke="black" points="1940.79,-181.49 1948.54,-174.26 1937.98,-175.08 1940.79,-181.49"/>
</g>
<!-- 31&#45;&gt;29 -->
<g id="edge93" class="edge">
<title>31&#45;&gt;29</title>
<path fill="none" stroke="black" d="M1728.88,-222.37C1722.92,-219.83 1716.33,-217.44 1710,-216 1370.33,-138.65 1265.09,-264.01 927,-180 925.36,-179.59 923.71,-179.11 922.07,-178.57"/>
<polygon fill="black" stroke="black" points="923.41,-175.34 912.83,-174.9 920.83,-181.84 923.41,-175.34"/>
</g>
<!-- 31&#45;&gt;30 -->
<g id="edge96" class="edge">
<title>31&#45;&gt;30</title>
<path fill="none" stroke="black" d="M1751.24,-215.7C1751.76,-208.41 1752.38,-199.73 1752.96,-191.54"/>
<polygon fill="black" stroke="black" points="1756.45,-191.84 1753.67,-181.61 1749.47,-191.34 1756.45,-191.84"/>
</g>
<!-- 63 -->
<g id="node60" class="node">
<title>63</title>
<ellipse fill="none" stroke="black" cx="1899" cy="-162" rx="27" ry="18"/>
<text text-anchor="middle" x="1899" y="-156.95" font-family="Times,serif" font-size="14.00">63</text>
</g>
<!-- 31&#45;&gt;63 -->
<g id="edge191" class="edge">
<title>31&#45;&gt;63</title>
<path fill="none" stroke="black" d="M1771.67,-222.86C1794.42,-212.2 1831.24,-194.95 1863,-180 1864.3,-179.39 1865.63,-178.76 1866.97,-178.13"/>
<polygon fill="black" stroke="black" points="1868.38,-181.33 1875.93,-173.9 1865.4,-175 1868.38,-181.33"/>
</g>
<!-- 16&#45;&gt;20 -->
<g id="edge66" class="edge">
<title>16&#45;&gt;20</title>
<path fill="none" stroke="black" d="M683.35,-72.76C687.58,-64.55 692.81,-54.37 697.58,-45.09"/>
<polygon fill="black" stroke="black" points="700.54,-46.99 702,-36.49 694.32,-43.79 700.54,-46.99"/>
</g>
<!-- 48&#45;&gt;16 -->
<g id="edge49" class="edge">
<title>48&#45;&gt;16</title>
<path fill="none" stroke="black" d="M617.92,-146.5C627.77,-136.92 640.86,-124.19 652.03,-113.34"/>
<polygon fill="black" stroke="black" points="654.29,-116.02 659.02,-106.54 649.41,-111 654.29,-116.02"/>
</g>
<!-- 48&#45;&gt;52 -->
<g id="edge152" class="edge">
<title>48&#45;&gt;52</title>
<path fill="none" stroke="black" d="M603,-143.7C603,-136.41 603,-127.73 603,-119.54"/>
<polygon fill="black" stroke="black" points="606.5,-119.62 603,-109.62 599.5,-119.62 606.5,-119.62"/>
</g>
<!-- 56 -->
<g id="node61" class="node">
<title>56</title>
<ellipse fill="none" stroke="black" cx="891" cy="-90" rx="27" ry="18"/>
<text text-anchor="middle" x="891" y="-84.95" font-family="Times,serif" font-size="14.00">56</text>
</g>
<!-- 48&#45;&gt;56 -->
<g id="edge163" class="edge">
<title>48&#45;&gt;56</title>
<path fill="none" stroke="black" d="M623.55,-150.11C628.5,-147.82 633.85,-145.61 639,-144 731.89,-114.94 762.11,-137.06 855,-108 856.61,-107.5 858.24,-106.94 859.87,-106.33"/>
<polygon fill="black" stroke="black" points="861.19,-109.57 869.06,-102.48 858.48,-103.12 861.19,-109.57"/>
</g>
<!-- 24&#45;&gt;16 -->
<g id="edge51" class="edge">
<title>24&#45;&gt;16</title>
<path fill="none" stroke="black" d="M797.44,-150.52C773.34,-138.8 734.08,-119.72 706.53,-106.32"/>
<polygon fill="black" stroke="black" points="708.12,-103.21 697.6,-101.98 705.06,-109.5 708.12,-103.21"/>
</g>
<!-- 24&#45;&gt;28 -->
<g id="edge88" class="edge">
<title>24&#45;&gt;28</title>
<path fill="none" stroke="black" d="M819,-143.7C819,-136.41 819,-127.73 819,-119.54"/>
<polygon fill="black" stroke="black" points="822.5,-119.62 819,-109.62 815.5,-119.62 822.5,-119.62"/>
</g>
<!-- 24&#45;&gt;56 -->
<g id="edge161" class="edge">
<title>24&#45;&gt;56</title>
<path fill="none" stroke="black" d="M833.92,-146.5C843.77,-136.92 856.86,-124.19 868.03,-113.34"/>
<polygon fill="black" stroke="black" points="870.29,-116.02 875.02,-106.54 865.41,-111 870.29,-116.02"/>
</g>
<!-- 49 -->
<g id="node36" class="node">
<title>49</title>
<ellipse fill="none" stroke="black" cx="711" cy="-234" rx="27" ry="18"/>
<text text-anchor="middle" x="711" y="-228.95" font-family="Times,serif" font-size="14.00">49</text>
</g>
<!-- 49&#45;&gt;33 -->
<g id="edge97" class="edge">
<title>49&#45;&gt;33</title>
<path fill="none" stroke="black" d="M684.41,-229.97C593.35,-219.58 298.62,-185.68 279,-180 277.38,-179.53 275.75,-179 274.11,-178.42"/>
<polygon fill="black" stroke="black" points="275.48,-175.2 264.9,-174.63 272.82,-181.67 275.48,-175.2"/>
</g>
<!-- 49&#45;&gt;17 -->
<g id="edge54" class="edge">
<title>49&#45;&gt;17</title>
<path fill="none" stroke="black" d="M702.65,-216.76C698.42,-208.55 693.19,-198.37 688.42,-189.09"/>
<polygon fill="black" stroke="black" points="691.68,-187.79 684,-180.49 685.46,-190.99 691.68,-187.79"/>
</g>
<!-- 49&#45;&gt;48 -->
<g id="edge147" class="edge">
<title>49&#45;&gt;48</title>
<path fill="none" stroke="black" d="M692.19,-220.81C675.41,-209.93 650.61,-193.86 631.41,-181.42"/>
<polygon fill="black" stroke="black" points="633.52,-178.61 623.23,-176.11 629.72,-184.49 633.52,-178.61"/>
</g>
<!-- 51 -->
<g id="node38" class="node">
<title>51</title>
<ellipse fill="none" stroke="black" cx="1683" cy="-162" rx="27" ry="18"/>
<text text-anchor="middle" x="1683" y="-156.95" font-family="Times,serif" font-size="14.00">51</text>
</g>
<!-- 49&#45;&gt;51 -->
<g id="edge149" class="edge">
<title>49&#45;&gt;51</title>
<path fill="none" stroke="black" d="M736.64,-228.13C758.46,-224.19 790.67,-218.84 819,-216 1002.26,-197.65 1468.21,-224.19 1647,-180 1648.64,-179.6 1650.29,-179.11 1651.93,-178.57"/>
<polygon fill="black" stroke="black" points="1653.17,-181.85 1661.17,-174.91 1650.59,-175.34 1653.17,-181.85"/>
</g>
<!-- 49&#45;&gt;53 -->
<g id="edge156" class="edge">
<title>49&#45;&gt;53</title>
<path fill="none" stroke="black" d="M719.35,-216.76C723.58,-208.55 728.81,-198.37 733.58,-189.09"/>
<polygon fill="black" stroke="black" points="736.54,-190.99 738,-180.49 730.32,-187.79 736.54,-190.99"/>
</g>
<!-- 49&#45;&gt;57 -->
<g id="edge167" class="edge">
<title>49&#45;&gt;57</title>
<path fill="none" stroke="black" d="M737.09,-228.36C778.2,-220.65 860.22,-203.69 927,-180 928.55,-179.45 930.12,-178.86 931.69,-178.23"/>
<polygon fill="black" stroke="black" points="932.8,-181.57 940.59,-174.39 930.02,-175.14 932.8,-181.57"/>
</g>
<!-- 50 -->
<g id="node37" class="node">
<title>50</title>
<ellipse fill="none" stroke="black" cx="1485" cy="-234" rx="27" ry="18"/>
<text text-anchor="middle" x="1485" y="-228.95" font-family="Times,serif" font-size="14.00">50</text>
</g>
<!-- 50&#45;&gt;34 -->
<g id="edge100" class="edge">
<title>50&#45;&gt;34</title>
<path fill="none" stroke="black" d="M1458.24,-229.86C1388.47,-221.52 1202.31,-198.18 1143,-180 1141.39,-179.51 1139.76,-178.95 1138.13,-178.35"/>
<polygon fill="black" stroke="black" points="1139.51,-175.14 1128.93,-174.52 1136.81,-181.6 1139.51,-175.14"/>
</g>
<!-- 50&#45;&gt;18 -->
<g id="edge56" class="edge">
<title>50&#45;&gt;18</title>
<path fill="none" stroke="black" d="M1496.98,-217.46C1503.77,-208.67 1512.4,-197.48 1520.08,-187.53"/>
<polygon fill="black" stroke="black" points="1522.79,-189.75 1526.12,-179.69 1517.25,-185.47 1522.79,-189.75"/>
</g>
<!-- 50&#45;&gt;48 -->
<g id="edge146" class="edge">
<title>50&#45;&gt;48</title>
<path fill="none" stroke="black" d="M1458.38,-229.78C1426.31,-226 1370.79,-219.76 1323,-216 1171.26,-204.05 786.6,-217.2 639,-180 637.37,-179.59 635.72,-179.1 634.07,-178.56"/>
<polygon fill="black" stroke="black" points="635.42,-175.33 624.83,-174.88 632.83,-181.83 635.42,-175.33"/>
</g>
<!-- 50&#45;&gt;51 -->
<g id="edge150" class="edge">
<title>50&#45;&gt;51</title>
<path fill="none" stroke="black" d="M1509.49,-226.03C1541.51,-216.68 1599.16,-199.04 1647,-180 1648.53,-179.39 1650.08,-178.75 1651.64,-178.09"/>
<polygon fill="black" stroke="black" points="1652.79,-181.41 1660.49,-174.13 1649.93,-175.02 1652.79,-181.41"/>
</g>
<!-- 50&#45;&gt;54 -->
<g id="edge159" class="edge">
<title>50&#45;&gt;54</title>
<path fill="none" stroke="black" d="M1480.64,-216.05C1478.7,-208.49 1476.35,-199.37 1474.16,-190.85"/>
<polygon fill="black" stroke="black" points="1477.57,-190.07 1471.69,-181.25 1470.79,-191.81 1477.57,-190.07"/>
</g>
<!-- 50&#45;&gt;58 -->
<g id="edge169" class="edge">
<title>50&#45;&gt;58</title>
<path fill="none" stroke="black" d="M1509.89,-226.61C1523.71,-223.19 1541.24,-219.07 1557,-216 1660.28,-195.89 1690.38,-210.79 1791,-180 1792.61,-179.51 1794.24,-178.95 1795.87,-178.36"/>
<polygon fill="black" stroke="black" points="1797.19,-181.6 1805.07,-174.52 1794.49,-175.14 1797.19,-181.6"/>
</g>
<!-- 51&#45;&gt;35 -->
<g id="edge103" class="edge">
<title>51&#45;&gt;35</title>
<path fill="none" stroke="black" d="M1662.54,-149.8C1657.58,-147.52 1652.21,-145.4 1647,-144 1460.92,-94.07 1401.08,-157.93 1215,-108 1213.37,-107.56 1211.73,-107.06 1210.09,-106.49"/>
<polygon fill="black" stroke="black" points="1211.44,-103.27 1200.86,-102.77 1208.82,-109.76 1211.44,-103.27"/>
</g>
<!-- 51&#45;&gt;19 -->
<g id="edge58" class="edge">
<title>51&#45;&gt;19</title>
<path fill="none" stroke="black" d="M1666.07,-147.83C1652.83,-137.54 1634.19,-123.04 1619.05,-111.26"/>
<polygon fill="black" stroke="black" points="1621.4,-108.65 1611.35,-105.27 1617.1,-114.18 1621.4,-108.65"/>
</g>
<!-- 51&#45;&gt;59 -->
<g id="edge171" class="edge">
<title>51&#45;&gt;59</title>
<path fill="none" stroke="black" d="M1702.98,-149.44C1722.33,-138.24 1751.93,-121.12 1774.09,-108.3"/>
<polygon fill="black" stroke="black" points="1775.78,-111.37 1782.68,-103.33 1772.27,-105.31 1775.78,-111.37"/>
</g>
<!-- 52&#45;&gt;20 -->
<g id="edge63" class="edge">
<title>52&#45;&gt;20</title>
<path fill="none" stroke="black" d="M621.81,-76.81C638.59,-65.93 663.39,-49.86 682.59,-37.42"/>
<polygon fill="black" stroke="black" points="684.28,-40.49 690.77,-32.11 680.48,-34.61 684.28,-40.49"/>
</g>
<!-- 60 -->
<g id="node62" class="node">
<title>60</title>
<ellipse fill="lightblue" stroke="black" cx="855" cy="-18" rx="27" ry="18"/>
<text text-anchor="middle" x="855" y="-12.95" font-family="Times,serif" font-size="14.00">60</text>
</g>
<!-- 52&#45;&gt;60 -->
<g id="edge177" class="edge">
<title>52&#45;&gt;60</title>
<path fill="none" stroke="black" d="M624.02,-78.21C628.87,-75.97 634.05,-73.76 639,-72 700.17,-50.3 774.13,-34.25 817.72,-25.78"/>
<polygon fill="black" stroke="black" points="818.25,-29.24 827.42,-23.93 816.94,-22.37 818.25,-29.24"/>
</g>
<!-- 28&#45;&gt;20 -->
<g id="edge65" class="edge">
<title>28&#45;&gt;20</title>
<path fill="none" stroke="black" d="M800.19,-76.81C783.41,-65.93 758.61,-49.86 739.41,-37.42"/>
<polygon fill="black" stroke="black" points="741.52,-34.61 731.23,-32.11 737.72,-40.49 741.52,-34.61"/>
</g>
<!-- 28&#45;&gt;60 -->
<g id="edge175" class="edge">
<title>28&#45;&gt;60</title>
<path fill="none" stroke="black" d="M827.35,-72.76C831.58,-64.55 836.81,-54.37 841.58,-45.09"/>
<polygon fill="black" stroke="black" points="844.54,-46.99 846,-36.49 838.32,-43.79 844.54,-46.99"/>
</g>
<!-- 22&#45;&gt;20 -->
<g id="edge67" class="edge">
<title>22&#45;&gt;20</title>
<path fill="none" stroke="black" d="M1478.21,-82.03C1464.42,-78.43 1446.89,-74.32 1431,-72 1161.4,-32.55 1089.9,-65.22 819,-36 795.38,-33.45 769.05,-29.33 748.3,-25.79"/>
<polygon fill="black" stroke="black" points="749.04,-22.36 738.58,-24.1 747.84,-29.26 749.04,-22.36"/>
</g>
<!-- 21&#45;&gt;20 -->
<g id="edge68" class="edge">
<title>21&#45;&gt;20</title>
<path fill="none" stroke="black" d="M738.65,-72.76C734.42,-64.55 729.19,-54.37 724.42,-45.09"/>
<polygon fill="black" stroke="black" points="727.68,-43.79 720,-36.49 721.46,-46.99 727.68,-43.79"/>
</g>
<!-- 53&#45;&gt;52 -->
<g id="edge154" class="edge">
<title>53&#45;&gt;52</title>
<path fill="none" stroke="black" d="M725.44,-150.52C701.34,-138.8 662.08,-119.72 634.53,-106.32"/>
<polygon fill="black" stroke="black" points="636.12,-103.21 625.6,-101.98 633.06,-109.5 636.12,-103.21"/>
</g>
<!-- 53&#45;&gt;21 -->
<g id="edge69" class="edge">
<title>53&#45;&gt;21</title>
<path fill="none" stroke="black" d="M747,-143.7C747,-136.41 747,-127.73 747,-119.54"/>
<polygon fill="black" stroke="black" points="750.5,-119.62 747,-109.62 743.5,-119.62 750.5,-119.62"/>
</g>
<!-- 61 -->
<g id="node64" class="node">
<title>61</title>
<ellipse fill="none" stroke="black" cx="963" cy="-90" rx="27" ry="18"/>
<text text-anchor="middle" x="963" y="-84.95" font-family="Times,serif" font-size="14.00">61</text>
</g>
<!-- 53&#45;&gt;61 -->
<g id="edge183" class="edge">
<title>53&#45;&gt;61</title>
<path fill="none" stroke="black" d="M768.03,-150.23C772.87,-147.98 778.05,-145.77 783,-144 845.13,-121.81 864.87,-130.19 927,-108 928.55,-107.45 930.11,-106.85 931.69,-106.22"/>
<polygon fill="black" stroke="black" points="932.8,-109.56 940.58,-102.38 930.02,-103.14 932.8,-109.56"/>
</g>
<!-- 29&#45;&gt;28 -->
<g id="edge90" class="edge">
<title>29&#45;&gt;28</title>
<path fill="none" stroke="black" d="M876.08,-146.5C866.23,-136.92 853.14,-124.19 841.97,-113.34"/>
<polygon fill="black" stroke="black" points="844.59,-111 834.98,-106.54 839.71,-116.02 844.59,-111"/>
</g>
<!-- 29&#45;&gt;21 -->
<g id="edge71" class="edge">
<title>29&#45;&gt;21</title>
<path fill="none" stroke="black" d="M869.44,-150.52C845.34,-138.8 806.08,-119.72 778.53,-106.32"/>
<polygon fill="black" stroke="black" points="780.12,-103.21 769.6,-101.98 777.06,-109.5 780.12,-103.21"/>
</g>
<!-- 29&#45;&gt;61 -->
<g id="edge181" class="edge">
<title>29&#45;&gt;61</title>
<path fill="none" stroke="black" d="M905.92,-146.5C915.77,-136.92 928.86,-124.19 940.03,-113.34"/>
<polygon fill="black" stroke="black" points="942.29,-116.02 947.02,-106.54 937.41,-111 942.29,-116.02"/>
</g>
<!-- 54&#45;&gt;52 -->
<g id="edge153" class="edge">
<title>54&#45;&gt;52</title>
<path fill="none" stroke="black" d="M1446.58,-149.66C1441.62,-147.38 1436.23,-145.3 1431,-144 1089.01,-59.11 980.99,-192.89 639,-108 637.36,-107.59 635.71,-107.11 634.07,-106.57"/>
<polygon fill="black" stroke="black" points="635.41,-103.34 624.83,-102.9 632.83,-109.85 635.41,-103.34"/>
</g>
<!-- 54&#45;&gt;22 -->
<g id="edge74" class="edge">
<title>54&#45;&gt;22</title>
<path fill="none" stroke="black" d="M1475.35,-144.76C1479.58,-136.55 1484.81,-126.37 1489.58,-117.09"/>
<polygon fill="black" stroke="black" points="1492.54,-118.99 1494,-108.49 1486.32,-115.79 1492.54,-118.99"/>
</g>
<!-- 62 -->
<g id="node63" class="node">
<title>62</title>
<ellipse fill="none" stroke="black" cx="1710" cy="-90" rx="27" ry="18"/>
<text text-anchor="middle" x="1710" y="-84.95" font-family="Times,serif" font-size="14.00">62</text>
</g>
<!-- 54&#45;&gt;62 -->
<g id="edge188" class="edge">
<title>54&#45;&gt;62</title>
<path fill="none" stroke="black" d="M1488.04,-150.25C1492.88,-148 1498.06,-145.78 1503,-144 1534.24,-132.74 1623.05,-111.3 1673.61,-99.43"/>
<polygon fill="black" stroke="black" points="1674.27,-102.87 1683.21,-97.19 1672.67,-96.06 1674.27,-102.87"/>
</g>
<!-- 30&#45;&gt;28 -->
<g id="edge89" class="edge">
<title>30&#45;&gt;28</title>
<path fill="none" stroke="black" d="M1734.58,-149.64C1729.62,-147.37 1724.23,-145.29 1719,-144 1345.81,-52.12 1228.19,-199.88 855,-108 853.36,-107.6 851.71,-107.12 850.07,-106.58"/>
<polygon fill="black" stroke="black" points="851.41,-103.35 840.82,-102.92 848.83,-109.85 851.41,-103.35"/>
</g>
<!-- 30&#45;&gt;22 -->
<g id="edge76" class="edge">
<title>30&#45;&gt;22</title>
<path fill="none" stroke="black" d="M1734.01,-150.13C1729.16,-147.89 1723.97,-145.7 1719,-144 1649.22,-120.11 1628.24,-127.09 1557,-108 1550.61,-106.29 1543.86,-104.3 1537.36,-102.31"/>
<polygon fill="black" stroke="black" points="1538.83,-99.1 1528.24,-99.43 1536.73,-105.77 1538.83,-99.1"/>
</g>
<!-- 30&#45;&gt;62 -->
<g id="edge186" class="edge">
<title>30&#45;&gt;62</title>
<path fill="none" stroke="black" d="M1744.79,-145.12C1739.32,-136.61 1732.46,-125.94 1726.28,-116.32"/>
<polygon fill="black" stroke="black" points="1729.34,-114.61 1720.99,-108.09 1723.45,-118.4 1729.34,-114.61"/>
</g>
<!-- 55 -->
<g id="node48" class="node">
<title>55</title>
<ellipse fill="none" stroke="black" cx="1593" cy="-234" rx="27" ry="18"/>
<text text-anchor="middle" x="1593" y="-228.95" font-family="Times,serif" font-size="14.00">55</text>
</g>
<!-- 55&#45;&gt;39 -->
<g id="edge110" class="edge">
<title>55&#45;&gt;39</title>
<path fill="none" stroke="black" d="M1568.16,-226.39C1554.35,-222.91 1536.81,-218.79 1521,-216 1386.14,-192.23 1346.64,-217.73 1215,-180 1213.38,-179.54 1211.74,-179.01 1210.11,-178.43"/>
<polygon fill="black" stroke="black" points="1211.47,-175.21 1200.89,-174.65 1208.82,-181.68 1211.47,-175.21"/>
</g>
<!-- 55&#45;&gt;23 -->
<g id="edge79" class="edge">
<title>55&#45;&gt;23</title>
<path fill="none" stroke="black" d="M1597.36,-216.05C1599.3,-208.49 1601.65,-199.37 1603.84,-190.85"/>
<polygon fill="black" stroke="black" points="1607.21,-191.81 1606.31,-181.25 1600.43,-190.07 1607.21,-191.81"/>
</g>
<!-- 55&#45;&gt;51 -->
<g id="edge148" class="edge">
<title>55&#45;&gt;51</title>
<path fill="none" stroke="black" d="M1609.93,-219.83C1623.17,-209.54 1641.81,-195.04 1656.95,-183.26"/>
<polygon fill="black" stroke="black" points="1658.9,-186.18 1664.65,-177.27 1654.6,-180.65 1658.9,-186.18"/>
</g>
<!-- 55&#45;&gt;53 -->
<g id="edge157" class="edge">
<title>55&#45;&gt;53</title>
<path fill="none" stroke="black" d="M1568.55,-226.05C1554.72,-222.42 1537.02,-218.26 1521,-216 1195.84,-170.08 1101.59,-259.64 783,-180 781.37,-179.59 779.72,-179.11 778.07,-178.56"/>
<polygon fill="black" stroke="black" points="779.42,-175.33 768.83,-174.89 776.83,-181.84 779.42,-175.33"/>
</g>
<!-- 55&#45;&gt;54 -->
<g id="edge160" class="edge">
<title>55&#45;&gt;54</title>
<path fill="none" stroke="black" d="M1572.76,-221.75C1552.27,-210.37 1520.38,-192.65 1496.97,-179.65"/>
<polygon fill="black" stroke="black" points="1498.96,-176.75 1488.52,-174.95 1495.56,-182.87 1498.96,-176.75"/>
</g>
<!-- 55&#45;&gt;63 -->
<g id="edge192" class="edge">
<title>55&#45;&gt;63</title>
<path fill="none" stroke="black" d="M1615.14,-223.62C1622.33,-220.85 1630.41,-218.02 1638,-216 1735.87,-189.97 1766.25,-209.92 1863,-180 1864.61,-179.5 1866.24,-178.95 1867.87,-178.34"/>
<polygon fill="black" stroke="black" points="1869.19,-181.59 1877.06,-174.5 1866.49,-175.13 1869.19,-181.59"/>
</g>
<!-- 40&#45;&gt;41 -->
<g id="edge119" class="edge">
<title>40&#45;&gt;41</title>
<path fill="none" stroke="black" d="M407.24,-149.75C427.73,-138.37 459.62,-120.65 483.03,-107.65"/>
<polygon fill="black" stroke="black" points="484.44,-110.87 491.48,-102.95 481.04,-104.75 484.44,-110.87"/>
</g>
<!-- 40&#45;&gt;42 -->
<g id="edge124" class="edge">
<title>40&#45;&gt;42</title>
<path fill="none" stroke="black" d="M407.42,-149.66C412.38,-147.38 417.77,-145.3 423,-144 764.99,-59.11 873.01,-192.89 1215,-108 1216.64,-107.59 1218.29,-107.11 1219.93,-106.57"/>
<polygon fill="black" stroke="black" points="1221.17,-109.85 1229.17,-102.9 1218.59,-103.34 1221.17,-109.85"/>
</g>
<!-- 40&#45;&gt;44 -->
<g id="edge133" class="edge">
<title>40&#45;&gt;44</title>
<path fill="none" stroke="black" d="M397.21,-145.12C402.68,-136.61 409.54,-125.94 415.72,-116.32"/>
<polygon fill="black" stroke="black" points="418.55,-118.4 421.01,-108.09 412.66,-114.61 418.55,-118.4"/>
</g>
<!-- 40&#45;&gt;56 -->
<g id="edge162" class="edge">
<title>40&#45;&gt;56</title>
<path fill="none" stroke="black" d="M407.46,-149.8C412.42,-147.52 417.79,-145.4 423,-144 609.08,-94.07 668.92,-157.93 855,-108 856.63,-107.56 858.27,-107.06 859.91,-106.49"/>
<polygon fill="black" stroke="black" points="861.18,-109.76 869.14,-102.77 858.56,-103.27 861.18,-109.76"/>
</g>
<!-- 41&#45;&gt;43 -->
<g id="edge129" class="edge">
<title>41&#45;&gt;43</title>
<path fill="none" stroke="black" d="M536.34,-80.26C545.73,-77.11 556.75,-73.88 567,-72 842.87,-21.5 919.47,-76.38 1197,-36 1208.92,-34.27 1221.76,-31.52 1233.25,-28.74"/>
<polygon fill="black" stroke="black" points="1233.9,-32.19 1242.75,-26.35 1232.2,-25.4 1233.9,-32.19"/>
</g>
<!-- 57&#45;&gt;41 -->
<g id="edge116" class="edge">
<title>57&#45;&gt;41</title>
<path fill="none" stroke="black" d="M942.52,-149.86C937.57,-147.58 932.2,-145.44 927,-144 772.05,-101.04 724.52,-140.31 567,-108 560.46,-106.66 553.59,-104.83 547.03,-102.87"/>
<polygon fill="black" stroke="black" points="548.41,-99.64 537.82,-99.97 546.31,-106.32 548.41,-99.64"/>
</g>
<!-- 57&#45;&gt;59 -->
<g id="edge173" class="edge">
<title>57&#45;&gt;59</title>
<path fill="none" stroke="black" d="M983.42,-149.67C988.38,-147.39 993.77,-145.31 999,-144 1321.49,-63.49 1418.22,-163.13 1746,-108 1753.72,-106.7 1761.86,-104.72 1769.53,-102.56"/>
<polygon fill="black" stroke="black" points="1770.29,-105.98 1778.86,-99.76 1768.28,-99.28 1770.29,-105.98"/>
</g>
<!-- 57&#45;&gt;56 -->
<g id="edge165" class="edge">
<title>57&#45;&gt;56</title>
<path fill="none" stroke="black" d="M948.08,-146.5C938.23,-136.92 925.14,-124.19 913.97,-113.34"/>
<polygon fill="black" stroke="black" points="916.59,-111 906.98,-106.54 911.71,-116.02 916.59,-111"/>
</g>
<!-- 57&#45;&gt;61 -->
<g id="edge184" class="edge">
<title>57&#45;&gt;61</title>
<path fill="none" stroke="black" d="M963,-143.7C963,-136.41 963,-127.73 963,-119.54"/>
<polygon fill="black" stroke="black" points="966.5,-119.62 963,-109.62 959.5,-119.62 966.5,-119.62"/>
</g>
<!-- 45&#45;&gt;41 -->
<g id="edge118" class="edge">
<title>45&#45;&gt;41</title>
<path fill="none" stroke="black" d="M470.98,-145.46C477.77,-136.67 486.4,-125.48 494.08,-115.53"/>
<polygon fill="black" stroke="black" points="496.79,-117.75 500.12,-107.69 491.25,-113.47 496.79,-117.75"/>
</g>
<!-- 45&#45;&gt;47 -->
<g id="edge143" class="edge">
<title>45&#45;&gt;47</title>
<path fill="none" stroke="black" d="M479.42,-149.66C484.38,-147.38 489.77,-145.3 495,-144 836.99,-59.11 945.01,-192.89 1287,-108 1288.64,-107.59 1290.29,-107.11 1291.93,-106.57"/>
<polygon fill="black" stroke="black" points="1293.17,-109.85 1301.17,-102.9 1290.59,-103.34 1293.17,-109.85"/>
</g>
<!-- 45&#45;&gt;44 -->
<g id="edge135" class="edge">
<title>45&#45;&gt;44</title>
<path fill="none" stroke="black" d="M452.46,-144.05C449.48,-136.32 445.87,-126.96 442.52,-118.27"/>
<polygon fill="black" stroke="black" points="445.88,-117.27 439.02,-109.2 439.35,-119.79 445.88,-117.27"/>
</g>
<!-- 45&#45;&gt;61 -->
<g id="edge182" class="edge">
<title>45&#45;&gt;61</title>
<path fill="none" stroke="black" d="M479.46,-149.8C484.42,-147.52 489.79,-145.4 495,-144 681.08,-94.07 740.92,-157.93 927,-108 928.63,-107.56 930.27,-107.06 931.91,-106.49"/>
<polygon fill="black" stroke="black" points="933.18,-109.76 941.14,-102.77 930.56,-103.27 933.18,-109.76"/>
</g>
<!-- 42&#45;&gt;43 -->
<g id="edge130" class="edge">
<title>42&#45;&gt;43</title>
<path fill="none" stroke="black" d="M1255.36,-72.05C1257.3,-64.49 1259.65,-55.37 1261.84,-46.85"/>
<polygon fill="black" stroke="black" points="1265.21,-47.81 1264.31,-37.25 1258.43,-46.07 1265.21,-47.81"/>
</g>
<!-- 58&#45;&gt;42 -->
<g id="edge121" class="edge">
<title>58&#45;&gt;42</title>
<path fill="none" stroke="black" d="M1806.55,-149.75C1801.59,-147.48 1796.22,-145.37 1791,-144 1573.76,-87.08 1504.24,-164.92 1287,-108 1285.37,-107.57 1283.72,-107.07 1282.08,-106.52"/>
<polygon fill="black" stroke="black" points="1283.43,-103.29 1272.85,-102.81 1280.82,-109.79 1283.43,-103.29"/>
</g>
<!-- 58&#45;&gt;59 -->
<g id="edge174" class="edge">
<title>58&#45;&gt;59</title>
<path fill="none" stroke="black" d="M1821.43,-144.05C1818.92,-136.4 1815.88,-127.16 1813.05,-118.56"/>
<polygon fill="black" stroke="black" points="1816.44,-117.63 1809.99,-109.23 1809.79,-119.82 1816.44,-117.63"/>
</g>
<!-- 58&#45;&gt;56 -->
<g id="edge164" class="edge">
<title>58&#45;&gt;56</title>
<path fill="none" stroke="black" d="M1806.58,-149.64C1801.62,-147.37 1796.23,-145.29 1791,-144 1417.81,-52.12 1300.19,-199.88 927,-108 925.36,-107.6 923.71,-107.12 922.07,-106.58"/>
<polygon fill="black" stroke="black" points="923.41,-103.35 912.82,-102.92 920.83,-109.85 923.41,-103.35"/>
</g>
<!-- 58&#45;&gt;62 -->
<g id="edge189" class="edge">
<title>58&#45;&gt;62</title>
<path fill="none" stroke="black" d="M1807.42,-149.28C1788.86,-138.18 1760.73,-121.35 1739.46,-108.63"/>
<polygon fill="black" stroke="black" points="1741.32,-105.66 1730.95,-103.53 1737.73,-111.67 1741.32,-105.66"/>
</g>
<!-- 46&#45;&gt;42 -->
<g id="edge123" class="edge">
<title>46&#45;&gt;42</title>
<path fill="none" stroke="black" d="M1251,-143.7C1251,-136.41 1251,-127.73 1251,-119.54"/>
<polygon fill="black" stroke="black" points="1254.5,-119.62 1251,-109.62 1247.5,-119.62 1254.5,-119.62"/>
</g>
<!-- 46&#45;&gt;47 -->
<g id="edge144" class="edge">
<title>46&#45;&gt;47</title>
<path fill="none" stroke="black" d="M1265.92,-146.5C1275.77,-136.92 1288.86,-124.19 1300.03,-113.34"/>
<polygon fill="black" stroke="black" points="1302.29,-116.02 1307.02,-106.54 1297.41,-111 1302.29,-116.02"/>
</g>
<!-- 46&#45;&gt;44 -->
<g id="edge134" class="edge">
<title>46&#45;&gt;44</title>
<path fill="none" stroke="black" d="M1230.58,-149.67C1225.62,-147.4 1220.23,-145.31 1215,-144 896.41,-64.36 798.52,-174.84 477,-108 472.92,-107.15 468.71,-105.99 464.59,-104.66"/>
<polygon fill="black" stroke="black" points="466.04,-101.46 455.45,-101.4 463.69,-108.05 466.04,-101.46"/>
</g>
<!-- 46&#45;&gt;62 -->
<g id="edge187" class="edge">
<title>46&#45;&gt;62</title>
<path fill="none" stroke="black" d="M1271.48,-149.88C1276.44,-147.6 1281.81,-145.45 1287,-144 1434.18,-102.79 1478.01,-131.73 1629,-108 1643.64,-105.7 1659.63,-102.49 1673.5,-99.49"/>
<polygon fill="black" stroke="black" points="1674.1,-102.94 1683.11,-97.36 1672.59,-96.1 1674.1,-102.94"/>
</g>
<!-- 59&#45;&gt;43 -->
<g id="edge126" class="edge">
<title>59&#45;&gt;43</title>
<path fill="none" stroke="black" d="M1780.25,-81.02C1769.84,-77.79 1757.42,-74.29 1746,-72 1584.98,-39.71 1389.16,-25.73 1307.57,-21"/>
<polygon fill="black" stroke="black" points="1307.84,-17.51 1297.66,-20.44 1307.45,-24.5 1307.84,-17.51"/>
</g>
<!-- 47&#45;&gt;43 -->
<g id="edge128" class="edge">
<title>47&#45;&gt;43</title>
<path fill="none" stroke="black" d="M1311.02,-73.46C1304.23,-64.67 1295.6,-53.48 1287.92,-43.53"/>
<polygon fill="black" stroke="black" points="1290.75,-41.47 1281.88,-35.69 1285.21,-45.75 1290.75,-41.47"/>
</g>
<!-- 44&#45;&gt;60 -->
<g id="edge176" class="edge">
<title>44&#45;&gt;60</title>
<path fill="none" stroke="black" d="M454.11,-79.5C461.3,-76.72 469.39,-73.92 477,-72 594.39,-42.42 627.2,-53.41 747,-36 770.51,-32.58 796.84,-28.45 817.61,-25.11"/>
<polygon fill="black" stroke="black" points="818.03,-28.59 827.34,-23.54 816.91,-21.67 818.03,-28.59"/>
</g>
<!-- 63&#45;&gt;59 -->
<g id="edge172" class="edge">
<title>63&#45;&gt;59</title>
<path fill="none" stroke="black" d="M1881.58,-148.16C1867.34,-137.67 1846.97,-122.66 1830.68,-110.66"/>
<polygon fill="black" stroke="black" points="1832.98,-108.01 1822.85,-104.89 1828.83,-113.64 1832.98,-108.01"/>
</g>
<!-- 63&#45;&gt;47 -->
<g id="edge141" class="edge">
<title>63&#45;&gt;47</title>
<path fill="none" stroke="black" d="M1878.55,-149.75C1873.59,-147.48 1868.22,-145.37 1863,-144 1645.76,-87.08 1576.24,-164.92 1359,-108 1357.37,-107.57 1355.72,-107.07 1354.08,-106.52"/>
<polygon fill="black" stroke="black" points="1355.43,-103.29 1344.85,-102.81 1352.82,-109.79 1355.43,-103.29"/>
</g>
<!-- 63&#45;&gt;62 -->
<g id="edge190" class="edge">
<title>63&#45;&gt;62</title>
<path fill="none" stroke="black" d="M1877.85,-150.55C1873.01,-148.29 1867.86,-145.98 1863,-144 1823.13,-127.73 1776.19,-111.96 1744.92,-101.91"/>
<polygon fill="black" stroke="black" points="1746.18,-98.64 1735.59,-98.94 1744.05,-105.31 1746.18,-98.64"/>
</g>
<!-- 63&#45;&gt;61 -->
<g id="edge185" class="edge">
<title>63&#45;&gt;61</title>
<path fill="none" stroke="black" d="M1878.58,-149.64C1873.62,-147.37 1868.23,-145.29 1863,-144 1489.81,-52.12 1372.19,-199.88 999,-108 997.36,-107.6 995.71,-107.12 994.07,-106.58"/>
<polygon fill="black" stroke="black" points="995.41,-103.35 984.82,-102.92 992.83,-109.85 995.41,-103.35"/>
</g>
<!-- 56&#45;&gt;60 -->
<g id="edge178" class="edge">
<title>56&#45;&gt;60</title>
<path fill="none" stroke="black" d="M882.65,-72.76C878.42,-64.55 873.19,-54.37 868.42,-45.09"/>
<polygon fill="black" stroke="black" points="871.68,-43.79 864,-36.49 865.46,-46.99 871.68,-43.79"/>
</g>
<!-- 62&#45;&gt;60 -->
<g id="edge179" class="edge">
<title>62&#45;&gt;60</title>
<path fill="none" stroke="black" d="M1684.98,-82.81C1669.05,-79.11 1647.93,-74.62 1629,-72 1592.22,-66.91 1044.44,-31.26 893.35,-21.48"/>
<polygon fill="black" stroke="black" points="893.68,-17.99 883.47,-20.84 893.22,-24.98 893.68,-17.99"/>
</g>
<!-- 61&#45;&gt;60 -->
<g id="edge180" class="edge">
<title>61&#45;&gt;60</title>
<path fill="none" stroke="black" d="M944.19,-76.81C927.41,-65.93 902.61,-49.86 883.41,-37.42"/>
<polygon fill="black" stroke="black" points="885.52,-34.61 875.23,-32.11 881.72,-40.49 885.52,-34.61"/>
</g>
</g>
</svg>
